<?xml version="1.0" encoding="UTF-8" standalone="no"?>
<!-- Created with Inkscape (http://www.inkscape.org/) -->

<svg
   xmlns:dc="http://purl.org/dc/elements/1.1/"
   xmlns:cc="http://creativecommons.org/ns#"
   xmlns:rdf="http://www.w3.org/1999/02/22-rdf-syntax-ns#"
   xmlns:svg="http://www.w3.org/2000/svg"
   xmlns="http://www.w3.org/2000/svg"
   xmlns:sodipodi="http://sodipodi.sourceforge.net/DTD/sodipodi-0.dtd"
   xmlns:inkscape="http://www.inkscape.org/namespaces/inkscape"
   width="522.96002"
   height="417.92001"
   id="svg3009"
   version="1.1"
   inkscape:version="0.48.2 r9819"
   sodipodi:docname="drawing.svg">
  <defs
     id="defs3011" />
  <sodipodi:namedview
     id="base"
     pagecolor="#ffffff"
     bordercolor="#666666"
     borderopacity="1.0"
     inkscape:pageopacity="0.0"
     inkscape:pageshadow="2"
     inkscape:zoom="2.5544555"
     inkscape:cx="25.070735"
     inkscape:cy="306.02554"
     inkscape:document-units="px"
     inkscape:current-layer="layer1"
     showgrid="false"
     inkscape:window-width="1366"
     inkscape:window-height="705"
     inkscape:window-x="-8"
     inkscape:window-y="-8"
     inkscape:window-maximized="1"
     showguides="true"
     inkscape:guide-bbox="true"
     fit-margin-top="20"
     fit-margin-left="20"
     fit-margin-right="20"
     fit-margin-bottom="20" />
  <metadata
     id="metadata3014">
    <rdf:RDF>
      <cc:Work
         rdf:about="">
        <dc:format>image/svg+xml</dc:format>
        <dc:type
           rdf:resource="http://purl.org/dc/dcmitype/StillImage" />
        <dc:title></dc:title>
      </cc:Work>
    </rdf:RDF>
  </metadata>
  <g
     inkscape:label="Layer 1"
     inkscape:groupmode="layer"
     id="layer1"
     transform="translate(-51.631001,-237.41218)">
    <path
       style="fill:#000000"
       d="m 228.61332,603.04376 c 0.47241,-0.16543 5.47545,-1.75327 11.11788,-3.5284 8.20722,-2.58206 11.35129,-4.05433 15.7208,-7.36161 3.00403,-2.27375 5.83415,-4.13407 6.2892,-4.13407 0.45503,0 1.46358,1.33424 2.24123,2.96498 1.83231,3.84241 0.74845,5.2354 -4.69032,6.02808 -2.22872,0.32483 -9.52947,1.91291 -16.2239,3.52907 -6.69441,1.61615 -12.87865,2.90796 -13.74275,2.87069 -0.86409,-0.037 -1.18454,-0.20322 -0.71214,-0.36874 z m 31.56537,-8.19786 c 3.50384,-0.97306 3.92907,-1.73361 1.90739,-3.41143 -1.08959,-0.90428 -1.71199,-0.74134 -3.65041,0.95563 -1.28526,1.12515 -2.70404,2.34144 -3.15282,2.70281 -1.15004,0.92605 1.07629,0.81373 4.89584,-0.24701 z m 221.38714,5.97172 c -7.79472,-0.3796 -24.00349,-1.10757 -36.01949,-1.61773 -13.16143,-0.55879 -22.29709,-1.30087 -22.97867,-1.86652 -1.62689,-1.35021 -24.31727,-32.18734 -24.31727,-33.04815 0,-0.39608 1.0043,-2.70512 2.23178,-5.13117 1.90947,-3.77397 2.74677,-4.55811 5.79772,-5.4295 1.96127,-0.56017 7.62436,-2.31257 12.58463,-3.89421 4.96027,-1.58165 17.32875,-5.45613 27.48549,-8.60996 17.42779,-5.41158 26.97452,-8.39782 43.64333,-13.65177 3.92653,-1.23762 7.64187,-2.25024 8.25632,-2.25024 0.85862,0 1.2482,3.82632 1.68347,16.53426 0.31146,9.09384 0.98542,25.72158 1.49768,36.95057 1.0125,22.19438 0.87992,23.07544 -3.43591,22.83193 -1.24128,-0.0705 -8.63436,-0.43792 -16.42908,-0.81751 z m 18.24753,-12.36847 c -0.32443,-16.52057 -2.05907,-60.07489 -2.40725,-60.44321 -0.16568,-0.17527 -6.59976,1.63 -14.29794,4.0117 -13.03217,4.03195 -19.75913,6.12908 -56.08388,17.48416 -7.55852,2.36279 -15.84144,4.94961 -18.4065,5.74849 -4.01771,1.25131 -4.93022,1.95642 -6.58745,5.09026 l -1.92366,3.63775 11.94137,16.20427 11.94136,16.2043 10.96559,0.53115 c 6.03107,0.29212 19.66215,0.93236 30.29131,1.42276 10.62916,0.49037 21.45159,1.01149 24.04982,1.15804 2.59824,0.14653 6.07687,0.23266 7.7303,0.19137 l 3.00622,-0.0751 -0.21929,-11.16599 z m -120.53081,10.40423 c -0.19684,-0.18276 -17.17128,-0.76133 -37.72098,-1.28573 -20.54973,-0.52437 -43.83724,-1.19726 -51.75005,-1.49531 l -14.38695,-0.54189 0.0271,-3.54065 c 0.0249,-3.25075 0.33498,-3.72737 3.78687,-5.82091 3.04552,-1.84709 5.61024,-2.47376 13.50088,-3.29881 25.09804,-2.62431 45.27696,-6.94905 70.1252,-15.02928 l 14.7468,-4.79544 3.43334,1.96538 c 1.88833,1.08094 3.60893,2.41682 3.82356,2.96859 0.21463,0.55178 0.46738,7.21252 0.56163,14.80166 0.18264,14.70432 -0.22063,16.40468 -3.8906,16.40468 -1.04443,0 -2.06002,-0.14954 -2.25685,-0.33229 z m 4.35555,-16.20196 -0.0107,-13.95747 -2.79798,-1.81094 -2.79795,-1.81092 -13.72565,4.56695 c -24.03103,7.9959 -45.93794,12.78073 -70.23234,15.3399 -9.62598,1.01402 -12.20171,1.58503 -14.36523,3.1846 -1.71077,1.26482 -2.54851,2.56164 -2.38633,3.69409 0.24284,1.69583 1.13397,1.77416 31.60055,2.77787 17.24285,0.56806 34.44275,1.16578 38.22201,1.32829 3.77926,0.16249 13.53876,0.37412 21.68777,0.47028 l 14.81643,0.17483 -0.0107,-13.95748 z m -226.74476,8.66796 c -3.07064,-0.91252 -9.44813,-2.65111 -14.17221,-3.86351 -4.72407,-1.21243 -9.20745,-2.5303 -9.96303,-2.92863 -1.38534,-0.73027 -5.06811,-9.64715 -5.06811,-12.27107 0,-2.01928 1.33124,-1.76236 5.42825,1.04765 8.02454,5.50379 21.57204,11.08995 30.43175,12.54818 4.03482,0.6641 4.24729,1.09878 2.33998,4.7871 -1.50041,2.90149 -1.51778,2.90279 -8.99663,0.68028 z m 7.73031,-1.87657 c 0,-0.71542 -2.69162,-1.89117 -7.08611,-3.09533 -7.88633,-2.16098 -15.89631,-5.58439 -22.33314,-9.54501 -2.34618,-1.44362 -4.47277,-2.4178 -4.72571,-2.16485 -0.25297,0.25297 0.20696,2.20618 1.02205,4.34048 1.36385,3.57119 1.83592,3.98168 5.92175,5.14944 23.31878,6.66467 27.20116,7.42331 27.20116,5.31527 z m 10.46993,0.50945 0.26659,-3.22097 27.84387,0 c 18.44142,0 27.94385,0.30044 28.13995,0.88971 0.16284,0.48933 -1.84294,1.93874 -4.45729,3.22095 l -4.75335,2.33127 -23.65316,0 -23.65318,0 0.26658,-3.22096 z m 48.31029,0.66545 c 5.6079,-2.13213 1.69924,-2.59803 -21.79589,-2.59803 -23.16793,0 -25.94238,0.29145 -24.52996,2.57677 0.69899,1.13102 43.35547,1.15059 46.32585,0.0212 z m 42.78031,-7.78091 c -2.79489,-1.12308 -4.17811,-4.55591 -2.93504,-7.28414 2.03667,-4.46999 8.27892,-4.94732 10.97086,-0.83889 1.87438,2.86065 0.95665,6.07447 -2.20092,7.7073 -2.85166,1.47466 -3.1473,1.49571 -5.8349,0.41573 z m 5.79544,-2.96571 c 1.42995,-1.723 0.42503,-5.28506 -1.64363,-5.82604 -2.10396,-0.5502 -5.21849,1.56523 -5.21849,3.54448 0,3.30127 4.71484,4.86886 6.86212,2.28156 z m -84.16509,2.18192 c -16.83547,-1.43478 -32.04328,-4.85622 -40.42016,-9.09369 -5.281,-2.67139 -12.833,-8.73149 -12.833,-10.29781 0,-1.93091 0.66717,-1.60002 5.45679,2.70647 8.43512,7.58426 22.66277,12.17421 43.50176,14.034 18.05355,1.61119 61.63154,0.91308 60.46855,-0.9687 -0.25382,-0.41068 -1.88449,-1.33826 -3.62371,-2.06131 -5.85406,-2.4337 -19.97272,-10.89146 -26.37226,-15.79827 -24.47444,-18.76565 -37.61291,-39.3531 -43.9455,-68.86086 -2.37257,-11.05535 -2.10277,-38.71705 0.51832,-53.14557 3.6183,-19.91781 11.12044,-44.16778 20.10212,-64.97834 3.55737,-8.24242 52.58052,-81.89731 54.50912,-81.89731 1.45932,0 4.21093,-4.30435 -25.15247,39.34598 -12.75498,18.96103 -23.85273,35.74128 -24.66167,37.28943 -0.80894,1.54819 -3.76503,8.61259 -6.56909,15.69869 -19.74459,49.89632 -23.65397,90.91766 -11.86921,124.54368 6.48077,18.49185 19.05565,35.43259 36.08245,48.60982 8.31755,6.43707 23.64588,15.64026 32.17083,19.31552 10.2836,4.43346 6.71542,5.24635 -25.58276,5.82817 -12.99119,0.23403 -27.29223,0.11257 -31.78011,-0.2699 z m -19.96862,-8.00493 c -1.77079,-1.05515 -6.40897,-3.81877 -10.30705,-6.14139 -3.89808,-2.32262 -9.68153,-5.73983 -12.85211,-7.59383 -3.17058,-1.85398 -5.98169,-4.05459 -6.24691,-4.89022 -0.29144,-0.91827 0.89194,-3.78128 2.99127,-7.23683 1.91043,-3.14462 4.31542,-7.45038 5.34441,-9.56839 1.02901,-2.118 2.41203,-3.8509 3.07342,-3.8509 1.1329,0 8.95919,4.36602 14.09574,7.86351 1.27999,0.87155 2.53134,1.58464 2.78079,1.58464 1.11802,0 19.37122,11.31296 19.37122,12.00589 0,0.4271 -0.31821,0.97322 -0.70714,1.21359 -0.38894,0.24037 -3.1876,4.51484 -6.21928,9.49883 -3.11708,5.12444 -6.07536,9.05566 -6.8084,9.04766 -0.71297,-0.007 -2.74515,-0.87743 -4.51596,-1.93256 z m 5.69894,-1.70456 c 0.65889,-1.04457 0.49427,-1.83258 -0.64609,-3.09265 -1.47542,-1.63035 -1.44789,-1.81542 0.76854,-5.16468 1.94647,-2.94132 2.64734,-3.40453 4.57261,-3.02206 1.87112,0.37172 2.5548,-0.0261 3.86059,-2.2459 0.87274,-1.48366 1.4525,-2.79953 1.28838,-2.92414 -1.80798,-1.3726 -11.0363,-6.52589 -11.68632,-6.52589 -0.47088,0 -1.3373,-0.57977 -1.92538,-1.28839 -2.19406,-2.64368 -3.86238,-1.28356 -9.20682,7.5061 l -5.34164,8.78509 2.21773,1.30253 c 1.21975,0.71641 4.78304,2.90679 7.91843,4.86755 6.1031,3.81664 6.81104,3.97262 8.17997,1.80244 z m 4.12056,-6.22998 c 1.3463,-2.95481 0.059,-3.88203 -1.94972,-1.40433 -1.98327,2.44634 -2.08843,3.55526 -0.33711,3.55526 0.71874,0 1.74781,-0.9679 2.28683,-2.15093 z m -21.64281,-6.653 c 1.1123,-2.00774 3.50257,-5.85168 5.31169,-8.54211 1.80915,-2.69041 3.28936,-5.07718 3.28936,-5.30393 0,-0.69686 -12.87317,-8.27121 -14.05754,-8.27121 -0.61202,0 -1.63234,0.97078 -2.26733,2.1573 -1.00255,1.87327 -0.96733,2.29735 0.26752,3.22097 1.29894,0.97156 1.21903,1.38203 -0.92316,4.7411 -1.59474,2.50063 -2.81365,3.5604 -3.809,3.31166 -1.28236,-0.32047 -4.79528,3.36963 -3.97314,4.17352 0.73275,0.7165 13.15158,8.16311 13.61373,8.16311 0.28903,0 1.43558,-1.64269 2.54787,-3.65041 z m -8.5965,-15.4606 c 0.033,-1.11559 -1.03588,-0.70218 -2.22092,0.85891 -0.62757,0.82672 -1.14473,2.0829 -1.14924,2.7915 -0.005,0.84813 0.56574,0.55462 1.67142,-0.85892 0.9238,-1.18102 1.68825,-2.4372 1.69874,-2.79149 z m 135.08013,30.92118 c -0.47243,-0.59051 -1.12237,-1.93323 -1.44432,-2.98381 -0.77037,-2.51395 -4.21153,-5.15187 -8.33041,-6.38591 -2.92959,-0.87774 -3.31739,-1.30635 -3.30231,-3.65006 0.0263,-4.07589 2.38327,-25.29558 2.90328,-26.13695 0.253,-0.40936 2.92856,-0.97481 5.94568,-1.25656 3.01714,-0.28173 7.57112,-1.30489 10.12,-2.27364 2.54888,-0.96878 5.32859,-1.76161 6.17714,-1.76185 0.84856,-2.2e-4 8.19235,5.51591 16.31952,12.25809 23.73972,19.69413 22.30387,18.66268 25.97969,18.66268 2.90398,0 3.84498,-0.58713 7.91577,-4.93881 2.54101,-2.71635 6.38968,-7.16125 8.55266,-9.8776 2.16294,-2.71634 4.35877,-4.94201 4.87958,-4.94591 1.28573,-0.009 16.98792,6.11408 18.37652,7.16671 0.77013,0.58377 0.83588,1.11562 0.21473,1.73678 -0.49244,0.49244 -0.89532,1.77072 -0.89532,2.84064 0,2.45873 -0.93072,2.91726 -12.45438,6.13579 -5.19646,1.45138 -15.63237,4.37044 -23.19089,6.48679 -22.82639,6.39133 -29.74473,7.83273 -43.80501,9.12646 -12.03358,1.10727 -12.92412,1.09433 -13.96193,-0.20284 z m 29.42252,-4.03866 c 8.18936,-1.63533 24.50524,-5.79331 25.11138,-6.39947 0.15755,-0.15755 -0.78987,-0.51244 -2.10539,-0.78866 -1.31553,-0.2762 -7.41656,-4.61596 -13.55785,-9.64392 -6.14129,-5.02795 -14.65177,-11.97371 -18.91216,-15.43502 l -7.74618,-6.29328 -5.10596,1.72375 c -2.80826,0.94808 -7.42385,1.98122 -10.25688,2.29587 -5.04671,0.56051 -5.16339,0.63294 -5.76591,3.57833 -0.3382,1.65342 -0.88373,7.5023 -1.21227,12.9975 l -0.59731,9.99131 2.96888,0.97981 c 3.1104,1.02653 6.60034,4.23571 8.39855,7.72292 1.05098,2.0381 1.15743,2.05334 10.62675,1.52236 5.26083,-0.29498 13.43028,-1.30817 18.15435,-2.2515 z m 36.7347,-9.47059 c 3.41627,-0.93449 10.26981,-2.80334 15.23008,-4.15298 7.33928,-1.99697 9.21242,-2.83835 10.05904,-4.51846 0.5722,-1.1355 0.76546,-2.3144 0.42947,-2.61979 -0.336,-0.30541 -4.02413,-1.83747 -8.19586,-3.40461 l -7.58496,-2.84934 -4.40234,5.1128 c -2.42131,2.81202 -6.38966,7.14199 -8.8186,9.62212 -2.42892,2.48014 -4.08144,4.50934 -3.67223,4.50934 0.40921,0 3.53912,-0.76459 6.9554,-1.69908 z m -102.40392,5.63327 c -4.93921,-2.03738 -9.13262,-4.1611 -9.31872,-4.71939 -0.1861,-0.5583 2.64814,-6.09573 6.29833,-12.3054 3.65016,-6.20968 7.60144,-13.05178 8.7806,-15.20466 1.17915,-2.15287 2.45907,-4.25787 2.84427,-4.67777 0.69033,-0.75257 8.01707,2.18899 8.7864,3.52757 0.21229,0.36937 0.0263,7.62884 -0.41347,16.13217 l -0.79944,15.46059 -2.69364,2.7915 c -1.4815,1.53532 -3.10097,2.77085 -3.59881,2.74561 -0.49783,-0.0253 -4.94632,-1.71284 -9.88552,-3.75022 z m 11.79343,-0.32282 c 2.37099,-1.82481 2.47024,-2.41106 3.18362,-18.80352 l 0.56768,-13.04484 -2.59533,-1.3421 c -1.42744,-0.73816 -2.77452,-1.3421 -2.99352,-1.3421 -0.21902,0 -1.8338,2.60897 -3.58843,5.79772 -1.75459,3.18875 -5.45976,9.50986 -8.23366,14.0469 -2.77392,4.53705 -5.04347,8.64351 -5.04347,9.12548 0,0.80067 13.89141,6.94686 15.89005,7.03048 0.47241,0.0198 1.73828,-0.64085 2.81306,-1.46802 z m 128.0981,-6.43019 c -5.00215,-3.84054 -2.83782,-10.92393 3.33784,-10.92393 2.60513,0 6.18474,3.29 6.18474,5.68436 0,4.48545 -6.11936,7.85248 -9.52258,5.23957 z m 6.455,-2.82553 c 1.59683,-1.59681 1.61051,-1.71162 0.46059,-3.86026 -1.6558,-3.09388 -7.70007,-1.7011 -7.70007,1.77431 0,3.28152 4.69198,4.63346 7.23948,2.08595 z m -167.8579,-0.0833 c -15.9896,-9.451 -28.3446,-24.60137 -33.39407,-40.94961 -1.57783,-5.10844 -4.38867,-19.0624 -4.39572,-21.82188 -0.002,-0.83417 5.52534,-1.07364 24.782,-1.07364 l 24.78476,0 0.48603,6.42636 c 0.6481,8.56949 4.81406,17.40454 10.88382,23.08208 2.38628,2.2321 4.33868,4.25246 4.33868,4.48971 0,0.56133 -20.66721,31.2799 -21.04488,31.2799 -0.15821,0 -0.80242,0.19164 -1.43155,0.42584 -0.62916,0.23421 -2.88322,-0.60223 -5.00907,-1.85876 z m 15.31442,-15.22218 9.73139,-14.38463 -4.18075,-4.45007 c -2.29942,-2.44753 -5.0894,-5.93511 -6.19998,-7.75019 -2.07201,-3.38642 -5.21693,-13.91822 -5.21693,-17.47063 l 0,-1.99066 -22.41256,0 -22.41258,0 0.58801,4.50932 c 2.46115,18.87458 12.08983,36.85669 25.4519,47.53287 6.30363,5.03656 12.8146,9.04482 14.06115,8.65632 0.47242,-0.14724 5.23806,-6.74079 10.59035,-14.65233 z m 84.67644,4.47339 c -4.68362,-3.8655 -11.9943,-9.9305 -16.24595,-13.47779 -4.25167,-3.54728 -7.86826,-6.54574 -8.03687,-6.66326 -0.80178,-0.55877 7.37078,-8.9047 8.7201,-8.90506 0.84819,-2.3e-4 7.41893,3.08428 14.60166,6.85448 7.18274,3.7702 15.4682,8.11849 18.41212,9.66289 2.94393,1.54437 5.56811,3.3623 5.83151,4.03986 1.0626,2.73344 -9.82872,15.51706 -13.22014,15.51706 -0.85073,0 -5.37883,-3.16267 -10.06243,-7.02818 z m 14.73751,1.03875 c 5.13739,-5.29586 7.04686,-8.30973 5.92412,-9.35056 -0.45808,-0.42468 -8.80864,-4.88217 -18.55681,-9.90554 l -17.72395,-9.13343 -2.72012,3.09801 c -1.49605,1.70392 -2.60337,3.40455 -2.46069,3.77919 0.14265,0.37463 5.28408,4.85598 11.42537,9.95855 6.14128,5.10256 12.90529,10.73719 15.03112,12.5214 2.12583,1.78419 4.10636,3.2575 4.40117,3.27398 0.29481,0.0165 2.40073,-1.89222 4.67979,-4.2416 z m 58.83623,-1.42723 c -2.07471,-2.63754 -2.04124,-2.01599 -0.87713,-16.29369 0.49669,-6.09178 1.42704,-18.41976 2.06745,-27.3955 0.64041,-8.97573 1.4258,-16.97213 1.74531,-17.76976 0.70633,-1.7633 3.75263,-2.12968 25.25002,-3.03684 12.53306,-0.52885 16.12684,-0.43265 17.40755,0.46598 0.88764,0.62284 1.45204,1.39586 1.25423,1.71784 -0.19781,0.32199 -0.81333,11.40785 -1.36784,24.63523 -0.85926,20.49756 -1.22058,24.25434 -2.4462,25.43445 -1.12586,1.08406 -38.86873,14.50543 -40.7914,14.50543 -0.254,0 -1.26291,-1.01843 -2.24199,-2.26314 z m 22.53672,-6.68647 c 10.30368,-3.4812 18.91587,-6.51139 19.13823,-6.73372 0.46985,-0.46987 2.9887,-48.96006 2.56525,-49.3835 -0.51587,-0.51588 -38.70901,1.65617 -39.23573,2.23134 -0.80035,0.87395 -4.59233,57.15909 -3.96161,58.80274 0.3073,0.80079 1.05398,1.44621 1.65933,1.43428 0.60534,-0.012 9.53089,-2.86995 19.83453,-6.35114 z m -50.72876,-0.74411 c -4.84218,-2.44198 -8.80396,-4.79642 -8.80396,-5.23205 0,-0.43564 1.13847,-3.92295 2.52995,-7.74955 1.39148,-3.82663 3.19989,-10.00127 4.01871,-13.72143 l 1.48876,-6.76395 9.93878,0.59713 c 6.91148,0.41525 10.3312,0.98062 11.22715,1.85616 1.04452,1.0207 1.28641,3.97632 1.27793,15.61495 -0.006,9.09379 -0.36591,14.96398 -0.98022,16.01479 -0.9716,1.66197 -6.95031,3.93057 -10.17531,3.86099 -0.94482,-0.0203 -5.67963,-2.03505 -10.52179,-4.47704 z m 17.06984,1.44642 c 1.90554,-0.53121 2.44995,-4.60624 2.46117,-18.42223 0.006,-7.91828 -0.31999,-11.96785 -1.02125,-12.66909 -0.66116,-0.66116 -4.04283,-1.03071 -9.43177,-1.03071 l -8.40108,0 -0.47142,2.36203 c -1.05248,5.27329 -4.22658,16.27946 -5.45205,18.90489 -1.6339,3.50043 -1.51093,3.62696 8.14399,8.38061 7.47505,3.68035 8.93341,3.93498 14.17241,2.4745 z m 64.72623,-8.9574 c -1.12771,-1.82466 -1.45636,-12.62628 -0.44186,-14.52192 0.94682,-1.76913 1.35312,-1.79327 26.40626,-1.56931 17.8705,0.15974 25.54024,0.51449 25.76575,1.19174 0.1766,0.53035 -0.3711,1.16048 -1.21713,1.40029 -0.84604,0.23981 -11.78088,3.42741 -24.29967,7.08356 -12.51878,3.65614 -23.3942,6.8282 -24.16761,7.04901 -0.77339,0.22082 -1.69398,-0.0641 -2.04574,-0.63337 z m 20.76791,-6.75967 c 9.52255,-2.78742 18.50849,-5.3305 19.96878,-5.65123 1.46031,-0.32073 2.65511,-0.94572 2.65511,-1.38883 0,-0.48612 -8.43198,-0.71456 -21.25832,-0.57595 l -21.25833,0.22973 0,6.22599 c 0,4.96351 0.26149,6.22622 1.28954,6.22718 0.70923,6.7e-4 9.0807,-2.27943 18.60322,-5.06689 z m -126.39906,3.73521 c -4.18717,-2.03505 -18.62922,-8.75664 -29.41808,-13.69167 -3.2947,-1.50706 -5.36323,-2.97788 -5.35523,-3.80783 0.0261,-2.69807 2.28196,-8.85602 3.48164,-9.50369 0.67616,-0.36502 5.09455,-0.3561 9.81862,0.0199 4.72407,0.37593 14.48096,0.96378 21.68199,1.30632 9.62241,0.45774 13.35948,0.94419 14.09903,1.83529 2.18611,2.6341 -4.31819,23.27584 -7.94613,25.21745 -1.85147,0.99089 -1.20479,1.13073 -6.36184,-1.37572 z m 6.60702,-2.31753 c 2.03713,-3.2227 4.89547,-11.55552 5.48296,-15.98426 l 0.55408,-4.17676 -6.7515,-0.53769 c -23.01659,-1.83301 -35.69983,-2.44645 -36.38555,-1.75982 -0.42336,0.42391 -1.01259,2.31681 -1.3094,4.20644 -0.5136,3.26982 -0.4017,3.4952 2.31808,4.6685 8.76958,3.7832 29.96469,13.57463 31.6316,14.61275 2.06418,1.28555 3.1558,1.03362 4.45973,-1.02916 z m 98.62036,-21.04359 c 0.0131,-8.05731 0.80307,-12.11047 2.46116,-12.62843 1.106,-0.34549 42.8562,-3.04395 47.13213,-3.0463 0.7372,-4e-4 1.07365,1.58137 1.07365,5.04777 0,3.01391 -0.43267,5.39001 -1.07365,5.89612 -0.59052,0.46629 -7.62872,1.10491 -15.64046,1.41918 -15.3657,0.60271 -16.35799,0.90309 -15.46703,4.68221 0.87021,3.69103 -0.79445,4.42717 -10.01119,4.42717 l -8.48406,0 0.009,-5.79772 z m 16.31006,0.74935 c 0,-5.26101 1.05153,-5.65532 15.80549,-5.92667 17.32694,-0.31868 16.83355,-0.17068 16.83355,-5.0495 l 0,-3.9669 -7.08612,0.52694 c -3.89735,0.28982 -14.23662,0.98808 -22.97615,1.55167 -8.73953,0.5636 -16.10057,1.33695 -16.35788,1.71854 -0.25732,0.3816 -0.57355,3.79491 -0.70275,7.58513 l -0.23493,6.89132 7.3594,0 7.35939,0 0,-3.33053 z m -96.47061,-8.47965 c -0.20502,-0.35431 -0.64362,-4.5819 -0.97467,-9.39467 -0.33105,-4.81277 -1.12912,-10.997 -1.7735,-13.74276 -0.90506,-3.85652 -0.93912,-5.21633 -0.14969,-5.97716 0.56206,-0.54169 5.58164,-2.63002 11.15464,-4.64074 7.56464,-2.72928 10.38004,-3.40849 11.10857,-2.67997 1.4249,1.4249 2.73741,34.32437 1.43211,35.89718 -0.72734,0.87638 -3.49688,1.18232 -10.70299,1.18232 -5.34695,0 -9.88946,-0.2899 -10.09447,-0.6442 z M 390.13529,479.028 c -0.34071,-8.78987 -0.77019,-16.1328 -0.95441,-16.31763 -0.45994,-0.46144 -18.33622,5.95403 -18.83378,6.75912 -0.21986,0.35573 0.16402,3.3077 0.85305,6.56 0.68902,3.25226 1.25949,8.8947 1.26768,12.53875 l 0.015,6.62555 8.37449,0.24583 c 4.60595,0.1352 8.71717,0.0937 9.136,-0.0921 0.4355,-0.19327 0.49632,-7.17956 0.14205,-16.31952 z m -54.27923,17.3027 c -14.4714,-0.17979 -20.10413,-0.53473 -20.71019,-1.30501 -0.45787,-0.58192 -1.05176,-2.79736 -1.31977,-4.92319 -0.42387,-3.36234 -0.22578,-4.05841 1.52282,-5.35077 1.10554,-0.81707 10.81287,-4.44243 21.57183,-8.05632 l 19.56175,-6.57073 1.53681,1.89789 c 2.19443,2.70998 3.37876,7.21358 3.91379,14.88261 0.39299,5.63325 0.22572,6.94583 -1.06718,8.37448 -0.84329,0.93182 -2.343,1.60507 -3.3327,1.49611 -0.98969,-0.10896 -10.74442,-0.30924 -21.67716,-0.44507 z m 24.12571,-5.15454 c 0.8184,-4.93772 -2.06936,-18.2521 -3.95868,-18.2521 -2.6948,0 -40.22918,13.19705 -40.22918,14.14455 0,0.60573 0.23912,2.29695 0.53137,3.75828 l 0.53139,2.65693 9.56095,0.27305 c 5.25852,0.15016 14.84156,0.35566 21.29562,0.45664 l 11.73469,0.1836 0.53384,-3.22095 z m -142.10498,-2.411 c -6.37747,-0.60354 -15.01289,-1.36022 -19.18979,-1.68151 l -7.59435,-0.58416 -1.26095,-3.01792 c -1.02226,-2.44658 -1.08962,-4.12228 -0.3558,-8.85188 1.17854,-7.59577 3.79063,-13.73054 5.84629,-13.73054 0.85592,0 5.79773,2.07816 10.98176,4.61813 5.18407,2.53999 14.31417,6.9899 20.28917,9.88871 5.97498,2.89884 11.06674,5.79993 11.315,6.4469 0.24828,0.64697 0.0474,2.76779 -0.4463,4.71295 -1.05017,4.13733 -0.16122,4.03752 -19.58503,2.19932 z m 17.516,-2.59805 c 1.41782,-3.69477 1.37771,-3.72049 -26.81107,-17.19767 l -13.16024,-6.29197 -1.68024,3.79848 c -0.93832,2.12122 -1.91335,6.82135 -2.20817,10.64438 l -0.52791,6.8459 2.91402,0.44402 c 4.38472,0.66811 30.57091,2.83153 36.10536,2.98291 3.71213,0.10153 4.96896,-0.18551 5.36825,-1.22605 z m 216.9697,-1.54244 c 0,-2.65783 0.45583,-4.98879 1.07366,-5.49011 1.16782,-0.94763 8.24609,-1.94493 31.90855,-4.49574 8.45587,-0.91155 15.70303,-1.45422 16.10478,-1.20591 1.21051,0.74815 0.89353,10.64794 -0.34317,10.71767 -3.21193,0.18106 -10.48086,0.91989 -16.53425,1.68055 -7.66813,0.96359 -30.22504,3.41245 -31.43258,3.41245 -0.42735,0 -0.77699,-2.0785 -0.77699,-4.61891 z m 26.15757,-0.0984 c 10.37119,-1.1848 19.55091,-2.15418 20.39939,-2.15418 1.22716,0 1.54267,-0.70265 1.54267,-3.43569 0,-4.18795 1.4056,-4.07888 -21.90251,-1.69952 -23.9298,2.44285 -23.98892,2.45602 -24.32861,5.4225 -0.44294,3.86829 0.37581,5.07184 3.06957,4.51207 1.29952,-0.27006 10.84829,-1.46038 21.21949,-2.64518 z m -299.64182,-7.1744 c -0.24665,-0.39909 -0.69431,-5.32715 -0.99481,-10.95125 -0.69317,-12.97304 -0.10801,-14.19149 5.51148,-11.47644 2.75885,1.33293 3.60243,2.17712 3.24183,3.24414 -0.26809,0.79328 -1.6506,4.72772 -3.07221,8.74317 -1.42163,4.01546 -2.59301,8.17049 -2.60307,9.23341 -0.0182,1.91294 -1.21744,2.60782 -2.08322,1.20697 z m 5.4479,-18.67699 c 0.029,-0.51467 -0.91358,-1.37605 -2.0946,-1.91416 l -2.1473,-0.97837 0.0715,6.20877 0.0716,6.20876 2.0231,-4.29461 c 1.11272,-2.36205 2.04682,-4.71571 2.07582,-5.23039 z m 124.21673,15.8881 c -2.93724,-4.43845 -1.99412,-5.62758 1.32407,-1.66943 l 2.4947,2.97583 19.96822,-6.6378 c 10.98253,-3.6508 20.48762,-6.96772 21.12246,-7.37094 2.41169,-1.53181 -9.86021,-21.80337 -12.93014,-21.35892 -0.80789,0.11697 -5.25281,3.89451 -9.87762,8.39454 -17.53597,17.06285 -21.63984,20.76256 -22.65528,20.42408 -0.94796,-0.31599 3.90751,-5.26043 24.5536,-25.00361 3.77925,-3.61399 7.54938,-6.57935 8.37805,-6.58972 1.87606,-0.0234 10.76409,11.7877 13.27512,17.64113 3.41972,7.97163 3.84581,7.64339 -20.31679,15.65137 -11.71287,3.88188 -21.68188,7.05797 -22.15337,7.05797 -0.47148,0 -1.90385,-1.58152 -3.18302,-3.5145 z m 91.20318,-7.00729 c -0.28551,-5.92706 -0.13133,-10.07134 0.39877,-10.71939 1.3353,-1.63235 57.99603,-19.72871 63.81311,-20.3807 2.83444,-0.31769 9.98497,-1.10683 15.89006,-1.75367 5.90508,-0.64684 12.95898,-1.44781 15.67532,-1.77996 l 4.93881,-0.60387 0.007,4.19814 c 0.004,2.30898 0.2295,6.13071 0.50088,8.49275 0.86239,7.50578 3.0411,6.87465 -38.73038,11.21943 -7.55852,0.78619 -14.11101,1.77327 -14.56111,2.1935 -0.45012,0.42024 -0.97286,3.19025 -1.16168,6.15562 -0.18883,2.96537 -0.78685,5.9814 -1.32894,6.70228 -0.73464,0.97696 -6.12584,1.90382 -21.17029,3.63969 -11.10158,1.28094 -20.9996,2.32225 -21.99562,2.314 -1.70588,-0.0141 -1.83793,-0.5754 -2.2764,-9.67782 z m 25.98986,5.29825 c 9.21194,-1.02581 17.11232,-2.19892 17.55642,-2.60687 0.44411,-0.40796 1.10375,-3.51464 1.46586,-6.90374 0.36212,-3.38911 1.08154,-6.42351 1.59867,-6.74312 0.51716,-0.31962 12.39048,-1.82134 26.38518,-3.33719 13.99471,-1.51583 25.76356,-2.953 26.15305,-3.19369 0.94251,-0.58253 0.91463,-14.70891 -0.0302,-15.29286 -0.40607,-0.25096 -3.78808,-0.0998 -7.51558,0.33598 -3.72749,0.43575 -12.38173,1.42946 -19.23162,2.20824 -8.09805,0.92067 -15.30852,2.31992 -20.61413,4.00031 -22.83434,7.23211 -49.80322,16.29656 -50.06968,16.82881 -0.16574,0.33106 0.0923,4.40773 0.57334,9.05926 l 0.87467,8.45733 3.0525,-0.47368 c 1.67891,-0.26051 10.58956,-1.31297 19.80152,-2.33878 z m -196.26368,-3.22389 c -5.19646,-2.73603 -13.69979,-7.19105 -18.89627,-9.90004 -5.19647,-2.70898 -9.89217,-5.50715 -10.43489,-6.21814 -1.50468,-1.97119 0.89339,-7.1439 5.93345,-12.79873 3.12002,-3.50058 4.80234,-4.74438 6.16034,-4.55454 1.62988,0.22786 32.18086,31.13181 32.97463,33.35561 0.49754,1.39392 -2.81216,5.07339 -4.57126,5.08202 -0.94482,0.004 -5.96951,-2.23016 -11.166,-4.96618 z m 12.42316,2.04315 c 0.57849,-0.69706 0.73632,-1.74273 0.35651,-2.36205 -0.73612,-1.20033 -9.75098,-10.76647 -22.46579,-23.8396 l -7.96829,-8.19287 -3.50392,3.864 c -4.8857,5.38776 -7.27137,10.1899 -5.7567,11.58773 0.63107,0.58238 6.55859,3.90147 13.17229,7.37577 6.6137,3.47428 14.73052,7.75617 18.03736,9.51532 7.0054,3.72662 6.78469,3.67091 8.12854,2.0517 z m 212.18495,-2.42953 c 0,-5.74387 0.96971,-6.19235 16.74221,-7.74296 16.26725,-1.59926 16.70094,-1.45851 15.93886,5.17291 l -0.47151,4.10302 -5.58298,0.53113 c -3.07065,0.29213 -10.31781,0.79856 -16.10479,1.12539 l -10.52179,0.59427 0,-3.78376 z m 20.39939,0.60811 10.52179,-0.55335 0,-3.86581 0,-3.86584 -2.79151,0.48702 c -1.53531,0.26787 -6.84989,0.90463 -11.81016,1.41504 -15.26593,1.57086 -14.60169,1.3502 -14.60169,4.85056 l 0,3.0479 4.07989,-0.48108 c 2.24394,-0.26459 8.81469,-0.73009 14.60168,-1.03444 z M 296.27859,462.7576 c -1.99387,-1.25839 -3.63657,-2.64212 -3.65042,-3.07496 -0.0137,-0.43285 4.846,-9.79239 10.79964,-20.799 6.8428,-12.65042 11.42242,-20.20169 12.44941,-20.52764 2.44431,-0.7758 9.84273,3.59503 16.14134,9.53598 l 5.5289,5.21493 -17.52187,16.04338 c -9.63702,8.82387 -18.10683,16.01007 -18.8218,15.96934 -0.71498,-0.0406 -2.9313,-1.10364 -4.9252,-2.36203 z m 26.24901,-18.60407 c 6.21701,-5.667 11.30366,-10.74336 11.30366,-11.28078 0,-1.48244 -5.81301,-6.42217 -11.93114,-10.13874 -5.1817,-3.14772 -5.51491,-3.23557 -6.42975,-1.69542 -0.53067,0.89338 -3.13319,5.6859 -5.78337,10.65007 -2.65018,4.96416 -6.99847,13.05517 -9.66287,17.97999 -2.66439,4.92482 -4.84435,9.06593 -4.84435,9.20244 0,0.13652 1.41175,1.20752 3.13722,2.38 l 3.13721,2.13179 4.88487,-4.46286 c 2.68666,-2.45457 9.97151,-9.09949 16.18852,-14.76649 z m -73.47221,18.99414 c -0.37778,-0.6529 -7.25762,-8.03844 -15.28854,-16.4123 -8.03092,-8.3739 -14.92988,-15.7974 -15.33099,-16.49668 -1.81609,-3.16601 18.17792,-16.78646 21.79774,-14.84918 0.73373,0.39267 2.4309,3.35256 3.77148,6.57751 10.74722,25.85383 14.94259,36.62297 14.60521,37.49037 -0.43024,1.1062 -6.62141,4.87738 -8.00722,4.87738 -0.47344,0 -1.1699,-0.53421 -1.54768,-1.1871 z m 5.02315,-2.88974 c 1.53495,-0.9067 2.38217,-2.01086 2.14191,-2.7915 -0.75693,-2.45929 -14.36054,-35.43312 -15.63488,-37.89743 -0.70392,-1.36122 -1.50327,-2.47494 -1.77636,-2.47494 -1.41316,0 -12.67737,6.55181 -15.51308,9.02316 l -3.27204,2.8516 3.00625,3.27237 c 3.22026,3.50536 12.31327,13.18677 21.87417,23.28962 3.24124,3.42496 6.05999,6.22719 6.26391,6.22719 0.20391,0 1.51347,-0.67503 2.91012,-1.50007 z m 110.08856,-0.39342 c -0.47331,-0.612 -1.52683,-2.85206 -2.34112,-4.97789 -1.81726,-4.74414 -7.15382,-13.87827 -10.7327,-18.37019 -1.46319,-1.8365 -2.65851,-3.96231 -2.65626,-4.72407 0.003,-0.76177 4.66097,-5.44343 10.35272,-10.40368 5.69175,-4.9603 11.77329,-10.27486 13.51455,-11.81019 1.74125,-1.53532 3.40397,-2.7915 3.69491,-2.7915 1.01887,0 7.58526,15.21288 9.66369,22.38868 1.15402,3.98427 2.60219,10.246 3.21814,13.91495 0.96121,5.72554 0.94368,6.84532 -0.12362,7.90223 -0.68395,0.67728 -5.68844,2.93988 -11.12113,5.02802 -5.43268,2.08814 -10.49207,4.05756 -11.24311,4.37649 -0.75194,0.31933 -1.75219,0.0799 -2.22607,-0.53285 z m 13.89864,-6.27473 9.44814,-3.64909 -0.24742,-2.8953 c -0.37756,-4.41808 -2.6114,-14.27883 -4.64477,-20.50319 -2.38629,-7.30473 -6.44236,-16.31951 -7.34274,-16.31951 -0.39122,0 -6.19197,4.84122 -12.89054,10.7583 l -12.17923,10.7583 4.14963,5.77595 c 4.26199,5.93236 7.58104,11.85028 9.91571,17.6798 1.05238,2.6277 1.63998,3.18296 2.83529,2.67924 0.82928,-0.34948 5.75946,-2.27751 10.95593,-4.2845 z m -112.42976,3.15871 c -1.16489,-1.88481 -14.26123,-41.2458 -14.26123,-42.86203 0,-0.95457 0.48314,-2.10176 1.07365,-2.54931 2.13077,-1.61489 8.26533,-2.83232 14.27186,-2.83232 l 6.12753,0 0,23.08573 c 0,17.4756 -0.26207,23.30322 -1.07844,23.98076 -1.66893,1.38507 -5.5451,2.12901 -6.13337,1.17717 z m 5.29386,-23.91659 c 0.22516,-21.23125 0.19688,-21.63557 -1.55305,-22.19097 -3.15391,-1.00102 -16.2842,1.33214 -16.2842,2.89356 0,0.33102 2.06534,6.5819 4.58965,13.89088 2.52431,7.30897 5.65541,16.49956 6.95803,20.42353 2.06786,6.22919 2.60261,7.1011 4.2143,6.87137 1.82574,-0.26023 1.84844,-0.49959 2.07527,-21.88837 z m 8.73371,23.27607 c -1.55212,-1.87019 1.3015,-45.66758 3.09693,-47.53189 1.01103,-1.04981 2.13672,-1.02711 8.18856,0.16518 6.24481,1.23029 15.69643,5.03523 16.75255,6.74409 0.21551,0.3487 -1.66915,4.42857 -4.18816,9.06639 -2.51898,4.6378 -6.83225,12.8773 -9.58505,18.30998 -6.62362,13.07177 -7.74754,14.60165 -10.72683,14.60165 -1.32721,0 -2.91931,-0.60992 -3.538,-1.3554 z m 10.48561,-10.69047 c 2.83281,-5.42114 7.24942,-13.8582 9.81467,-18.74906 2.56524,-4.89082 4.66408,-9.39127 4.66408,-10.00098 0,-1.52919 -10.13096,-5.4492 -15.80715,-6.11633 l -4.66868,-0.54871 -0.48403,3.76055 c -0.26621,2.0683 -0.87795,9.55827 -1.35938,16.64437 -0.48142,7.08611 -1.08799,15.46058 -1.3479,18.60992 -0.41491,5.02748 -0.28369,5.77441 1.0755,6.12219 0.85143,0.21788 1.86626,0.3373 2.25518,0.2654 0.38893,-0.0719 3.02489,-4.56621 5.85771,-9.98735 z m -106.92923,2.81499 -4.16517,-2.31775 0.54353,-4.31801 c 1.21539,-9.6557 5.91443,-26.58717 8.06129,-29.04631 1.26239,-1.446 1.81754,-1.06404 9.33779,6.42496 4.39758,4.37929 7.99561,8.38576 7.99561,8.90325 0,0.5175 -1.01311,1.87792 -2.25134,3.02319 -2.79946,2.58923 -10.6325,13.59483 -10.6325,14.93886 0,1.11533 -3.17151,4.76266 -4.11334,4.73043 -0.3359,-0.0115 -2.48504,-1.06387 -4.77587,-2.33862 z m 8.17852,-5.51884 c 1.55415,-2.91589 4.66893,-7.31837 6.92174,-9.78331 2.2528,-2.46493 4.09603,-4.80493 4.09603,-5.19998 0,-1.08999 -12.27158,-13.21307 -13.3749,-13.21307 -1.42517,0 -8.61989,28.52322 -7.60779,30.16083 0.46254,0.74839 5.18757,3.10685 6.54536,3.26707 0.32661,0.0386 1.86541,-2.31567 3.41956,-5.23154 z m 205.64468,3.36903 c -1.48521,-7.53194 -3.64293,-15.99435 -5.85839,-22.97618 -2.37269,-7.4773 -8.96065,-24.49001 -10.88815,-28.11747 -3.38766,-6.37541 -6.096,-17.77002 -6.096,-25.64733 0,-5.09094 2.14067,-17.22767 3.29815,-18.69925 0.42127,-0.53557 0.97305,-1.94005 1.22619,-3.12107 0.25314,-1.18102 1.9864,-6.01245 3.85167,-10.73652 1.86529,-4.72407 5.79476,-14.77346 8.73219,-22.33198 2.93743,-7.55851 5.65655,-14.06552 6.0425,-14.46002 0.77432,-0.79148 1.35762,-0.44574 21.58565,12.7941 7.75491,5.07579 17.96495,11.74418 22.68902,14.81862 4.72406,3.07446 12.98983,8.45638 18.36836,11.95985 l 9.77912,6.36989 -0.60639,14.3318 -0.60641,14.33177 6.28786,6.0297 c 6.93093,6.64637 16.37726,13.80708 21.85725,16.56871 1.94948,0.98242 3.78542,2.41407 4.0799,3.18144 0.29446,0.76737 0.53538,6.3966 0.53538,12.50938 0,10.7098 -0.0704,11.14403 -1.93257,11.93552 -1.06292,0.45176 -10.24264,2.0196 -20.3994,3.4841 -10.15675,1.46448 -19.5815,2.88456 -20.94389,3.15573 -1.86957,0.37209 -2.37995,0.20167 -2.08108,-0.69494 0.2569,-0.77074 2.93664,-1.53478 7.6306,-2.17562 11.53956,-1.5754 31.96665,-4.69599 34.07593,-5.20566 1.87878,-0.45397 1.93257,-0.77204 1.93257,-11.42662 l 0,-10.95967 -5.67028,-3.31611 c -6.55437,-3.83314 -19.03568,-13.66113 -23.81105,-18.74922 l -3.28422,-3.49929 0.53898,-14.25684 0.53898,-14.25681 -9.70914,-6.30443 c -5.34002,-3.46742 -20.89486,-13.61415 -34.56632,-22.54831 -22.89783,-14.96348 -24.9459,-16.12262 -25.98239,-14.70512 -0.61885,0.84633 -1.12519,1.85245 -1.12519,2.23583 0,0.69323 -14.79253,39.0709 -16.32372,42.35019 -1.82013,3.89812 -4.28999,16.11181 -4.28437,21.18668 0.006,6.41557 2.60159,17.90489 5.45963,24.17716 8.34189,18.30709 10.86515,25.27762 14.67775,40.54737 1.61339,6.46177 3.10116,11.91641 3.30614,12.12138 0.20496,0.20498 11.89053,-3.11702 25.96792,-7.38223 30.03616,-9.10042 27.3493,-8.39422 27.88549,-7.32911 0.23622,0.4692 -2.4694,1.6908 -6.01244,2.71467 -3.54305,1.02388 -15.57545,4.59913 -26.73867,7.94503 -11.16319,3.3459 -20.91532,6.08344 -21.67141,6.08344 -0.75606,0 -1.54615,-0.86965 -1.75575,-1.93256 z m -56.34049,-18.48263 c 0,-1.71252 -9.51567,-10.02695 -15.47231,-13.5191 l -6.65387,-3.90089 5.26537,-10.08806 c 2.89594,-5.54845 8.34081,-15.97476 12.09973,-23.1696 4.02513,-7.70437 7.34585,-13.0815 8.07869,-13.0815 4.48774,0 21.14631,17.25606 27.4484,28.43294 l 2.7136,4.8126 -15.86038,15.58679 c -14.42868,14.17982 -17.61923,16.88282 -17.61923,14.92682 z m 16.63123,-16.81865 14.48394,-13.9604 -2.82186,-4.67988 c -4.42978,-7.34653 -11.73863,-15.95002 -17.88137,-21.04875 -3.09755,-2.57109 -6.03233,-4.6747 -6.52173,-4.6747 -0.82144,0 -22.79921,41.21186 -22.7763,42.70923 0.006,0.36648 2.36473,1.95982 5.24248,3.54077 2.87778,1.58094 7.22148,4.90074 9.6527,7.3773 2.4312,2.47658 4.80689,4.54651 5.27929,4.59985 0.4724,0.0534 7.3767,-6.1852 15.34285,-13.86342 z m -155.56184,2.06887 c -5.31458,-5.61483 -9.66289,-10.63851 -9.66289,-11.1637 0,-1.56621 5.88815,-12.77548 9.20916,-17.53148 4.63587,-6.63903 9.92038,-13.36624 14.27083,-18.16684 3.4683,-3.82719 4.03408,-4.15439 5.19834,-3.00623 1.76909,1.74462 17.1013,41.89701 16.54847,43.33759 -0.24143,0.62918 -2.30279,2.04896 -4.58079,3.15506 -5.07967,2.46649 -17.75219,10.63158 -19.19064,12.36482 -0.57837,0.69688 -1.29413,1.25638 -1.59059,1.24332 -0.29646,-0.013 -4.88733,-4.61768 -10.20189,-10.23254 z m 14.26332,4.41104 c 4.22173,-3.25019 10.86832,-7.3443 15.66504,-9.64927 l 3.946,-1.89614 -2.98766,-7.83893 c -1.64318,-4.3114 -3.73454,-9.77149 -4.64743,-12.13352 -0.91289,-2.36204 -2.85872,-7.57999 -4.32407,-11.59545 -1.46536,-4.01546 -3.01516,-7.7625 -3.444,-8.32676 -1.52414,-2.00543 -15.99216,16.35023 -22.81136,28.94089 l -3.48899,6.44191 8.64279,9.2334 c 4.75355,5.07839 9.02015,9.23342 9.48133,9.23342 0.4612,0 2.24693,-1.08429 3.96835,-2.40955 z m 92.00245,-10.09719 c -3.01243,-1.66695 -10.56431,-3.82147 -17.58209,-5.01612 l -6.01246,-1.0235 0.20757,-10.69676 c 0.11416,-5.8832 0.58261,-15.52818 1.04101,-21.43327 0.45841,-5.90509 1.09394,-15.27807 1.41231,-20.82887 l 0.57885,-10.09233 3.69224,0 c 5.72402,0 15.49619,2.29714 23.98922,5.63916 7.66554,3.01639 18.88474,9.85366 20.46416,12.47141 0.61992,1.02742 -2.08999,7.03506 -11.04202,24.47928 -15.33718,29.88645 -14.11771,27.95694 -16.74879,26.501 z m 4.4784,-7.06213 c 1.26792,-2.70072 6.58251,-13.13109 11.81018,-23.17865 5.22768,-10.04754 9.50488,-18.79535 9.50488,-19.43958 0,-1.4913 -9.01839,-7.38318 -16.46532,-10.75713 -6.3613,-2.88206 -15.96192,-5.59094 -22.80734,-6.43524 -4.18879,-0.51663 -4.51248,-0.4234 -4.88089,1.40577 -0.3509,1.74227 -2.7958,40.87571 -3.31528,53.06497 -0.19925,4.67515 -0.17466,4.72649 2.37543,4.95918 4.18547,0.38189 14.42972,2.91588 16.74897,4.14298 3.61091,1.91051 4.6196,1.37064 7.02937,-3.7623 z m -66.63921,3.03462 c -0.68351,-1.06292 -4.38073,-10.62915 -8.21604,-21.25831 -3.83531,-10.62916 -7.53664,-20.59503 -8.22519,-22.14638 -2.63052,-5.9268 -1.8375,-7.3366 6.90786,-12.28056 10.25319,-5.79637 19.05253,-8.7335 30.79772,-10.27995 6.28797,-0.8279 7.81069,-0.7977 8.78265,0.17426 0.97126,0.97123 1.03643,4.16271 0.37469,18.34487 -0.44062,9.44299 -1.05028,23.23049 -1.35479,30.63886 -0.44431,10.8096 -0.80759,13.56723 -1.83949,13.9632 -0.70722,0.27138 -5.00234,0.90784 -9.54472,1.41434 -4.54239,0.5065 -9.81866,1.4646 -11.72503,2.12909 -4.49481,1.56672 -4.50086,1.56601 -5.95766,-0.69942 z m 8.6872,-2.45457 c 1.04558,-0.38494 5.40056,-0.96409 9.67773,-1.28697 6.9828,-0.52712 7.81339,-0.77162 8.13662,-2.39526 0.198,-0.99453 0.57704,-8.57223 0.84232,-16.83936 0.26527,-8.26712 0.73898,-20.9868 1.05267,-28.26596 l 0.57036,-13.23484 -5.93685,0.55183 c -3.26525,0.3035 -9.02896,1.34561 -12.80822,2.31582 -6.68965,1.71737 -20.25917,7.86103 -24.37905,11.03772 l -2.04706,1.57844 3.47966,9.35807 c 1.91383,5.14695 5.69559,15.54232 8.40395,23.10084 2.70835,7.55851 5.29667,14.22216 5.75179,14.8081 0.81067,1.04367 3.05474,0.81838 7.25608,-0.72843 z M 498.6977,384.51806 c -2.10022,-1.38258 -7.68372,-5.56374 -12.4078,-9.29147 l -8.58921,-6.77771 0,-13.57538 c 0,-12.63957 -0.11843,-13.65049 -1.71785,-14.66498 -3.321,-2.10646 -22.41877,-14.42244 -30.277,-19.52536 -4.36977,-2.83761 -7.94502,-5.37785 -7.94502,-5.64499 0,-0.26712 2.01065,-3.54828 4.46813,-7.29148 4.29688,-6.54493 4.40465,-6.85221 2.81186,-8.0169 -1.89482,-1.38551 -2.22496,-1.06811 -7.92019,7.61518 -1.77373,2.70431 -3.61146,4.83015 -4.08387,4.72407 -0.47242,-0.10609 -7.51159,-4.63779 -15.64263,-10.07048 -9.38887,-6.27309 -14.21641,-9.97151 -13.22912,-10.13496 0.86202,-0.14271 7.55464,3.76072 15.02317,8.76218 l 13.4686,9.01955 4.73314,-6.40015 c 2.60322,-3.52008 5.12363,-6.40014 5.60089,-6.40014 0.75897,0 5.83795,2.33251 6.672,3.06412 0.16861,0.14786 -1.8606,3.4149 -4.50933,7.26007 -2.64874,3.84516 -4.81588,7.11376 -4.81588,7.26359 0,0.14979 8.9268,6.01333 19.83736,13.03005 l 19.83735,12.7577 -0.50833,13.38095 -0.50833,13.38093 11.34647,8.73631 c 6.77847,5.21915 12.13698,8.73631 13.31001,8.73631 1.17275,0 1.96353,0.51887 1.96353,1.28838 0,2.00981 -2.74103,1.52428 -6.91795,-1.22539 z M 361.24233,373.90609 c -2.108,-1.6185 -3.51196,-4.80137 -2.92862,-6.63938 0.77433,-2.43971 4.60547,-5.14349 7.28808,-5.14349 3.06186,0 6.88096,3.57432 6.88096,6.43995 0,4.85971 -7.33108,8.3444 -11.24042,5.34292 z m 6.75469,-1.95398 c 2.62663,-1.83975 2.46737,-5.1288 -0.33731,-6.9665 -2.0119,-1.31823 -2.48243,-1.33988 -4.50934,-0.20743 -3.0419,1.69952 -3.46157,5.29818 -0.83261,7.13959 2.43998,1.70903 3.28106,1.71411 5.67926,0.0343 z m -12.43107,-14.76902 c -1.50954,-0.82598 -6.32273,-3.95299 -10.696,-6.94892 -25.97069,-17.79129 -54.00556,-24.86575 -85.45141,-21.56323 -12.80268,1.34458 -13.11247,1.32123 -15.20886,-1.14592 -2.7622,-3.25069 -1.23823,-8.39256 4.82608,-16.28323 4.22643,-5.4993 6.67402,-6.15214 20.66032,-5.5107 26.36866,1.20932 48.06496,6.58083 69.71818,17.26062 16.2347,8.00727 33.92742,20.24178 33.92742,23.4608 0,1.66063 -6.83153,9.59354 -9.40979,10.9268 -3.26497,1.68838 -4.99591,1.64778 -8.36594,-0.19622 z m 7.47414,-1.50461 c 3.694,-1.91025 8.84791,-8.95098 7.62812,-10.42075 -2.35428,-2.83673 -26.7532,-19.20923 -28.62633,-19.20923 -0.17149,0 -3.53847,-1.50906 -7.48217,-3.35347 -19.71325,-9.21958 -40.27933,-13.82209 -67.75448,-15.16289 l -11.62559,-0.56733 -3.09189,3.42236 c -1.70056,1.88229 -4.15233,5.23182 -5.44838,7.44339 -1.97685,3.37325 -2.22897,4.46286 -1.56497,6.76368 0.90571,3.13844 -2.23463,2.91724 26.05556,1.83527 16.87294,-0.64529 23.6101,0.20064 39.08095,4.90714 13.82578,4.20605 32.67335,14.13337 44.44202,23.40833 3.22919,2.54493 4.90935,2.73193 8.38716,0.9335 z M 223.03034,342.1497 c 0,-0.59248 1.99326,-4.3077 4.42949,-8.25605 l 4.42951,-7.17882 3.63474,3.7467 c 1.99911,2.06071 3.48856,3.99308 3.30989,4.29418 -0.4559,0.76829 -14.1474,8.47123 -15.0571,8.47123 -0.4106,0 -0.74653,-0.48476 -0.74653,-1.07724 z m 8.89999,-5.52262 c 3.68475,-2.22567 3.77148,-2.37388 2.51299,-4.29459 -0.71693,-1.09417 -1.60884,-1.98938 -1.98202,-1.98938 -0.64831,0 -5.13637,7.07584 -5.13637,8.09798 0,0.83074 0.652,0.57393 4.6054,-1.81401 z m 136.2578,-7.19642 c -4.84384,-3.28709 -21.74802,-11.8406 -29.37698,-14.86472 -15.80973,-6.26696 -40.06747,-11.69901 -59.9509,-13.42481 -19.02514,-1.6513 -19.83141,-1.77732 -20.37126,-3.18413 -0.65432,-1.70514 1.77269,-5.74496 3.68723,-6.13746 1.28611,-0.26366 1.23709,0.0767 -0.39032,2.70988 l -1.86114,3.01141 8.39409,0.52998 c 12.36491,0.78071 33.79736,3.78478 43.6099,6.11258 8.15228,1.93395 22.91789,6.38082 26.62659,8.01899 0.9448,0.41734 4.6167,2.0199 8.15976,3.56128 7.10204,3.08965 15.39113,7.43259 21.73787,11.38922 2.38737,1.48832 4.44111,2.25152 4.86735,1.8088 0.40555,-0.42124 3.80855,-8.88269 7.56222,-18.80323 4.87999,-12.89734 7.24594,-18.12041 8.30248,-18.3288 1.23459,-0.24351 1.32502,-0.006 0.54976,1.4423 -0.51033,0.95355 -2.61105,6.30265 -4.66826,11.88689 -7.87836,21.38541 -10.26923,26.90219 -11.65728,26.89843 -0.74577,-0.002 -3.09527,-1.18399 -5.22111,-2.62661 z"
       id="path2996"
       inkscape:connector-curvature="0" />
    <rect
       style="fill:#999999;fill-rule:evenodd"
       id="rect3024"
       width="166.07143"
       height="6.4285717"
       x="103.21429"
       y="517.36224" />
    <path
       sodipodi:type="arc"
       style="fill:#999999"
       id="path3807"
       sodipodi:cx="280.78125"
       sodipodi:cy="520.89343"
       sodipodi:rx="4.40625"
       sodipodi:ry="4.40625"
       d="m 285.1875,520.89343 c 0,2.43351 -1.97275,4.40625 -4.40625,4.40625 -2.4335,0 -4.40625,-1.97274 -4.40625,-4.40625 0,-2.4335 1.97275,-4.40625 4.40625,-4.40625 2.4335,0 4.40625,1.97275 4.40625,4.40625 z"
       transform="matrix(1.1909065,0,0,1.1909065,-64.79473,-99.714528)" />
    <rect
       style="fill:#999999;fill-rule:evenodd"
       id="rect3024-8"
       width="191.071"
       height="6.4285717"
       x="103.214"
       y="475.60315" />
    <path
       sodipodi:type="arc"
       style="fill:#999999"
       id="path3807-8"
       sodipodi:cx="280.78125"
       sodipodi:cy="520.89343"
       sodipodi:rx="4.40625"
       sodipodi:ry="4.40625"
       d="m 285.1875,520.89343 c 0,2.43351 -1.97275,4.40625 -4.40625,4.40625 -2.4335,0 -4.40625,-1.97274 -4.40625,-4.40625 0,-2.4335 1.97275,-4.40625 4.40625,-4.40625 2.4335,0 4.40625,1.97275 4.40625,4.40625 z"
       transform="matrix(1.1909065,0,0,1.1909065,-39.794784,-141.47362)" />
    <rect
       style="fill:#999999;fill-rule:evenodd"
       id="rect3024-1-7-2-8-6"
       width="21.468094"
       height="6.4285717"
       x="292.02924"
       y="-262.50861"
       transform="matrix(0,1,-1,0,0,0)" />
    <path
       sodipodi:type="arc"
       style="fill:#999999"
       id="path3807-7-6-1-5-1"
       sodipodi:cx="280.78125"
       sodipodi:cy="520.89343"
       sodipodi:rx="4.40625"
       sodipodi:ry="4.40625"
       d="m 285.1875,520.89343 c 0,2.43351 -1.97275,4.40625 -4.40625,4.40625 -2.4335,0 -4.40625,-1.97274 -4.40625,-4.40625 0,-2.4335 1.97275,-4.40625 4.40625,-4.40625 2.4335,0 4.40625,1.97275 4.40625,4.40625 z"
       transform="matrix(0,1.1909065,-1.1909065,0,879.58537,-20.583144)" />
    <rect
       style="fill:#999999;fill-rule:evenodd"
       id="rect3024-2-9"
       width="158.90984"
       height="6.4285717"
       x="103.214"
       y="427.37814" />
    <path
       sodipodi:type="arc"
       style="fill:#999999"
       id="path3807-4-2"
       sodipodi:cx="280.78125"
       sodipodi:cy="520.89343"
       sodipodi:rx="4.40625"
       sodipodi:ry="4.40625"
       d="m 285.1875,520.89343 c 0,2.43351 -1.97275,4.40625 -4.40625,4.40625 -2.4335,0 -4.40625,-1.97274 -4.40625,-4.40625 0,-2.4335 1.97275,-4.40625 4.40625,-4.40625 2.4335,0 4.40625,1.97275 4.40625,4.40625 z"
       transform="matrix(1.1909065,0,0,1.1909065,-69.494784,-189.69862)" />
    <rect
       style="fill:#999999;fill-rule:evenodd"
       id="rect3024-1-7-2-8-6-3"
       width="21.468094"
       height="6.4285717"
       x="403.97754"
       y="-290.38361"
       transform="matrix(0,1,-1,0,0,0)" />
    <path
       sodipodi:type="arc"
       style="fill:#999999"
       id="path3807-7-6-1-5-1-1"
       sodipodi:cx="280.78125"
       sodipodi:cy="520.89343"
       sodipodi:rx="4.40625"
       sodipodi:ry="4.40625"
       d="m 285.1875,520.89343 c 0,2.43351 -1.97275,4.40625 -4.40625,4.40625 -2.4335,0 -4.40625,-1.97274 -4.40625,-4.40625 0,-2.4335 1.97275,-4.40625 4.40625,-4.40625 2.4335,0 4.40625,1.97275 4.40625,4.40625 z"
       transform="matrix(0,1.1909065,-1.1909065,0,907.46037,91.365172)" />
    <rect
       style="fill:#999999;fill-rule:evenodd"
       id="rect3024-1-7-2-8-6-33"
       width="21.468094"
       height="6.4285717"
       x="-456.63464"
       y="448.22858"
       transform="scale(-1,1)" />
    <path
       sodipodi:type="arc"
       style="fill:#999999"
       id="path3807-7-6-1-5-1-4"
       sodipodi:cx="280.78125"
       sodipodi:cy="520.89343"
       sodipodi:rx="4.40625"
       sodipodi:ry="4.40625"
       d="m 285.1875,520.89343 c 0,2.43351 -1.97275,4.40625 -4.40625,4.40625 -2.4335,0 -4.40625,-1.97274 -4.40625,-4.40625 0,-2.4335 1.97275,-4.40625 4.40625,-4.40625 2.4335,0 4.40625,1.97275 4.40625,4.40625 z"
       transform="matrix(-1.1909065,0,0,1.1909065,769.24701,-168.84819)" />
    <rect
       style="fill:#999999;fill-rule:evenodd"
       id="rect3024-1-7-2-8-6-33-1"
       width="21.468094"
       height="6.4285717"
       x="-506.75964"
       y="478.60358"
       transform="scale(-1,1)" />
    <path
       sodipodi:type="arc"
       style="fill:#999999"
       id="path3807-7-6-1-5-1-4-3"
       sodipodi:cx="280.78125"
       sodipodi:cy="520.89343"
       sodipodi:rx="4.40625"
       sodipodi:ry="4.40625"
       d="m 285.1875,520.89343 c 0,2.43351 -1.97275,4.40625 -4.40625,4.40625 -2.4335,0 -4.40625,-1.97274 -4.40625,-4.40625 0,-2.4335 1.97275,-4.40625 4.40625,-4.40625 2.4335,0 4.40625,1.97275 4.40625,4.40625 z"
       transform="matrix(-1.1909065,0,0,1.1909065,819.37201,-138.47319)" />
    <rect
       style="fill:#999999;fill-rule:evenodd"
       id="rect3024-1-7-2-8-6-33-7"
       width="21.468094"
       height="6.4285717"
       x="-481.12183"
       y="-344.75861"
       transform="matrix(0,-1,-1,0,0,0)" />
    <path
       sodipodi:type="arc"
       style="fill:#999999"
       id="path3807-7-6-1-5-1-4-4"
       sodipodi:cx="280.78125"
       sodipodi:cy="520.89343"
       sodipodi:rx="4.40625"
       sodipodi:ry="4.40625"
       d="m 285.1875,520.89343 c 0,2.43351 -1.97275,4.40625 -4.40625,4.40625 -2.4335,0 -4.40625,-1.97274 -4.40625,-4.40625 0,-2.4335 1.97275,-4.40625 4.40625,-4.40625 2.4335,0 4.40625,1.97275 4.40625,4.40625 z"
       transform="matrix(0,-1.1909065,-1.1909065,0,961.83537,793.73419)" />
    <rect
       style="fill:#999999;fill-rule:evenodd"
       id="rect3024-1-7-2-8-6-33-7-7"
       width="21.468094"
       height="6.4285717"
       x="-499.37183"
       y="-386.75861"
       transform="matrix(0,-1,-1,0,0,0)" />
    <path
       sodipodi:type="arc"
       style="fill:#999999"
       id="path3807-7-6-1-5-1-4-4-7"
       sodipodi:cx="280.78125"
       sodipodi:cy="520.89343"
       sodipodi:rx="4.40625"
       sodipodi:ry="4.40625"
       d="m 285.1875,520.89343 c 0,2.43351 -1.97275,4.40625 -4.40625,4.40625 -2.4335,0 -4.40625,-1.97274 -4.40625,-4.40625 0,-2.4335 1.97275,-4.40625 4.40625,-4.40625 2.4335,0 4.40625,1.97275 4.40625,4.40625 z"
       transform="matrix(0,-1.1909065,-1.1909065,0,1003.8354,811.98419)" />
    <rect
       style="fill:#999999;fill-rule:evenodd"
       id="rect3024-8-9"
       width="70.509003"
       height="6.4285717"
       x="453.88599"
       y="448.22861" />
    <rect
       style="fill:#999999;fill-rule:evenodd"
       id="rect3024-8-9-1"
       width="23.486403"
       height="6.4285717"
       x="500.9086"
       y="478.60361" />
    <rect
       style="fill:#999999;fill-rule:evenodd"
       id="rect3024-8-9-9"
       width="158.19025"
       height="6.4285717"
       x="477.14157"
       y="-344.75858"
       transform="matrix(0,1,-1,0,0,0)" />
    <rect
       style="fill:#999999;fill-rule:evenodd"
       id="rect3024-8-9-9-8"
       width="139.62869"
       height="6.4285717"
       x="495.70349"
       y="-386.75858"
       transform="matrix(0,1,-1,0,0,0)" />
    <rect
       style="fill:#999999;fill-rule:evenodd"
       id="rect3024-8-9-9-8-6"
       width="155.53859"
       height="6.4285717"
       x="257.40982"
       y="-290.38358"
       transform="matrix(0,1,-1,0,0,0)" />
    <rect
       style="fill:#999999;fill-rule:evenodd"
       id="rect3024-8-9-9-8-6-5"
       width="42.047958"
       height="6.4285717"
       x="257.41022"
       y="-262.50858"
       transform="matrix(0,1,-1,0,0,0)" />
    <rect
       style="fill:#999999;fill-rule:evenodd"
       id="rect3024-2-9-0"
       width="98.452209"
       height="6.4285717"
       x="103.214"
       y="406.69708" />
    <path
       sodipodi:type="arc"
       style="fill:#999999"
       id="path3807-4-2-2"
       sodipodi:cx="280.78125"
       sodipodi:cy="520.89343"
       sodipodi:rx="4.40625"
       sodipodi:ry="4.40625"
       d="m 285.1875,520.89343 c 0,2.43351 -1.97275,4.40625 -4.40625,4.40625 -2.4335,0 -4.40625,-1.97274 -4.40625,-4.40625 0,-2.4335 1.97275,-4.40625 4.40625,-4.40625 2.4335,0 4.40625,1.97275 4.40625,4.40625 z"
       transform="matrix(1.1909065,0,0,1.1909065,-131.71942,-210.3797)" />
    <text
       xml:space="preserve"
       style="font-size:16px;font-style:normal;font-weight:bold;line-height:125%;letter-spacing:0px;word-spacing:0px;fill:#000000;fill-opacity:1;stroke:none;font-family:Sans;-inkscape-font-specification:Sans Bold"
       x="76.53701"
       y="436.33636"
       id="text4364"
       sodipodi:linespacing="125%"><tspan
         sodipodi:role="line"
         id="tspan4366"
         x="76.53701"
         y="436.33636"
         style="font-size:16px;font-style:normal;font-variant:normal;font-weight:bold;font-stretch:normal;font-family:Helvetica LT Std;-inkscape-font-specification:Helvetica LT Std Bold">IM</tspan></text>
    <text
       xml:space="preserve"
       style="font-size:16px;font-style:normal;font-weight:bold;line-height:125%;letter-spacing:0px;word-spacing:0px;fill:#000000;fill-opacity:1;stroke:none;font-family:Sans;-inkscape-font-specification:Sans Bold"
       x="78.228012"
       y="415.6553"
       id="text4364-9"
       sodipodi:linespacing="125%"><tspan
         sodipodi:role="line"
         id="tspan4366-8"
         x="78.228012"
         y="415.6553"
         style="font-size:16px;font-style:normal;font-variant:normal;font-weight:bold;font-stretch:normal;font-family:Helvetica LT Std;-inkscape-font-specification:Helvetica LT Std Bold">CI</tspan></text>
    <text
       xml:space="preserve"
       style="font-size:16px;font-style:normal;font-weight:bold;line-height:125%;letter-spacing:0px;word-spacing:0px;fill:#000000;fill-opacity:1;stroke:none;font-family:Sans;-inkscape-font-specification:Sans Bold"
       x="70.92701"
       y="484.56137"
       id="text4364-8"
       sodipodi:linespacing="125%"><tspan
         sodipodi:role="line"
         id="tspan4366-0"
         x="70.92701"
         y="484.56137"
         style="font-size:16px;font-style:normal;font-variant:normal;font-weight:bold;font-stretch:normal;font-family:Helvetica LT Std;-inkscape-font-specification:Helvetica LT Std Bold">CB</tspan></text>
    <text
       xml:space="preserve"
       style="font-size:40px;font-style:normal;font-weight:normal;line-height:125%;letter-spacing:0px;word-spacing:0px;fill:#000000;fill-opacity:1;stroke:none;font-family:Sans"
       x="81.317284"
       y="521.32501"
       id="text4400"
       sodipodi:linespacing="125%"><tspan
         sodipodi:role="line"
         id="tspan4402"
         x="81.317284"
         y="521.32501" /></text>
    <text
       xml:space="preserve"
       style="font-size:16px;font-style:normal;font-weight:bold;line-height:125%;letter-spacing:0px;word-spacing:0px;fill:#000000;fill-opacity:1;stroke:none;font-family:Sans;-inkscape-font-specification:Sans Bold"
       x="71.802017"
       y="526.32043"
       id="text4364-8-8"
       sodipodi:linespacing="125%"><tspan
         sodipodi:role="line"
         id="tspan4366-0-7"
         x="71.802017"
         y="526.32043"
         style="font-size:16px;font-style:normal;font-variant:normal;font-weight:bold;font-stretch:normal;font-family:Helvetica LT Std;-inkscape-font-specification:Helvetica LT Std Bold">PB</tspan></text>
    <text
       xml:space="preserve"
       style="font-size:16px;font-style:normal;font-weight:bold;line-height:125%;letter-spacing:0px;word-spacing:0px;fill:#000000;fill-opacity:1;stroke:none;font-family:Sans;-inkscape-font-specification:Sans Bold"
       x="533.17902"
       y="457.18683"
       id="text4364-8-8-7"
       sodipodi:linespacing="125%"><tspan
         sodipodi:role="line"
         id="tspan4366-0-7-8"
         x="533.17902"
         y="457.18683"
         style="font-size:16px;font-style:normal;font-variant:normal;font-weight:bold;font-stretch:normal;font-family:Helvetica LT Std;-inkscape-font-specification:Helvetica LT Std Bold">FE</tspan></text>
    <text
       xml:space="preserve"
       style="font-size:16px;font-style:normal;font-weight:bold;line-height:125%;letter-spacing:0px;word-spacing:0px;fill:#000000;fill-opacity:1;stroke:none;font-family:Sans;-inkscape-font-specification:Sans Bold"
       x="533.17902"
       y="487.56183"
       id="text4364-8-8-3"
       sodipodi:linespacing="125%"><tspan
         sodipodi:role="line"
         id="tspan4366-0-7-83"
         x="533.17902"
         y="487.56183"
         style="font-size:16px;font-style:normal;font-variant:normal;font-weight:bold;font-stretch:normal;font-family:Helvetica LT Std;-inkscape-font-specification:Helvetica LT Std Bold">EB</tspan></text>
    <text
       xml:space="preserve"
       style="font-size:16px;font-style:normal;font-weight:bold;line-height:125%;letter-spacing:0px;word-spacing:0px;fill:#000000;fill-opacity:1;stroke:none;font-family:Sans;-inkscape-font-specification:Sans Bold"
       x="313.18503"
       y="616.8382"
       id="text4364-8-8-71"
       sodipodi:linespacing="125%"><tspan
         sodipodi:role="line"
         id="tspan4366-0-7-0"
         x="313.18503"
         y="616.8382"
         style="font-size:16px;font-style:normal;font-variant:normal;font-weight:bold;font-stretch:normal;font-family:Helvetica LT Std;-inkscape-font-specification:Helvetica LT Std Bold">LQ</tspan></text>
    <text
       xml:space="preserve"
       style="font-size:16px;font-style:normal;font-weight:bold;line-height:125%;letter-spacing:0px;word-spacing:0px;fill:#000000;fill-opacity:1;stroke:none;font-family:Sans;-inkscape-font-specification:Sans Bold"
       x="318.52902"
       y="634.49982"
       id="text4364-8-8-73"
       sodipodi:linespacing="125%"><tspan
         sodipodi:role="line"
         id="tspan4366-0-7-4"
         x="318.52902"
         y="634.49982"
         style="font-size:16px;font-style:normal;font-variant:normal;font-weight:bold;font-stretch:normal;font-family:Helvetica LT Std;-inkscape-font-specification:Helvetica LT Std Bold">IQ</tspan></text>
    <text
       xml:space="preserve"
       style="font-size:16px;font-style:normal;font-weight:bold;line-height:125%;letter-spacing:0px;word-spacing:0px;fill:#000000;fill-opacity:1;stroke:none;font-family:Sans;-inkscape-font-specification:Sans Bold"
       x="389.11401"
       y="635.33215"
       id="text4364-8-8-9"
       sodipodi:linespacing="125%"><tspan
         sodipodi:role="line"
         id="tspan4366-0-7-6"
         x="389.11401"
         y="635.33215"
         style="font-size:16px;font-style:normal;font-variant:normal;font-weight:bold;font-stretch:normal;font-family:Helvetica LT Std;-inkscape-font-specification:Helvetica LT Std Bold">FA</tspan></text>
    <text
       xml:space="preserve"
       style="font-size:16px;font-style:normal;font-weight:bold;line-height:125%;letter-spacing:0px;word-spacing:0px;fill:#000000;fill-opacity:1;stroke:none;font-family:Sans;-inkscape-font-specification:Sans Bold"
       x="292.73901"
       y="268.89767"
       id="text4364-8-8-5"
       sodipodi:linespacing="125%"><tspan
         sodipodi:role="line"
         id="tspan4366-0-7-1"
         x="292.73901"
         y="268.89767"
         style="font-size:16px;font-style:normal;font-variant:normal;font-weight:bold;font-stretch:normal;font-family:Helvetica LT Std;-inkscape-font-specification:Helvetica LT Std Bold">LF</tspan></text>
    <text
       xml:space="preserve"
       style="font-size:16px;font-style:normal;font-weight:bold;line-height:125%;letter-spacing:0px;word-spacing:0px;fill:#000000;fill-opacity:1;stroke:none;font-family:Sans;-inkscape-font-specification:Sans Bold"
       x="292.93103"
       y="285.38519"
       id="text4364-8-8-0"
       sodipodi:linespacing="125%"><tspan
         sodipodi:role="line"
         id="tspan4366-0-7-9"
         x="292.93103"
         y="285.38519"
         style="font-size:16px;font-style:normal;font-variant:normal;font-weight:bold;font-stretch:normal;font-family:Helvetica LT Std;-inkscape-font-specification:Helvetica LT Std Bold">IF</tspan></text>
    <text
       xml:space="preserve"
       style="font-size:16px;font-style:normal;font-weight:bold;line-height:125%;letter-spacing:0px;word-spacing:0px;fill:#000000;fill-opacity:1;stroke:none;font-family:Sans;-inkscape-font-specification:Sans Bold"
       x="230.00201"
       y="269.20206"
       id="text4364-8-8-96"
       sodipodi:linespacing="125%"><tspan
         sodipodi:role="line"
         id="tspan4366-0-7-834"
         x="230.00201"
         y="269.20206"
         style="font-size:16px;font-style:normal;font-variant:normal;font-weight:bold;font-stretch:normal;font-family:Helvetica LT Std;-inkscape-font-specification:Helvetica LT Std Bold">CC</tspan></text>
    <rect
       style="fill:none"
       id="rect3809"
       width="258.76355"
       height="229.01163"
       x="1.5658915"
       y="2.1781797"
       transform="translate(51.631001,237.40982)" />
    <rect
       style="fill:none;stroke:#000000;stroke-width:1;stroke-opacity:1;stroke-miterlimit:4;stroke-dasharray:none"
       id="rect3811"
       width="515.53156"
       height="410.49152"
       x="55.345238"
       y="241.12642" />
  </g>
</svg>
