<?xml version="1.0" encoding="UTF-8" standalone="no"?>
<!-- Created with Inkscape (http://www.inkscape.org/) -->

<svg
   xmlns:dc="http://purl.org/dc/elements/1.1/"
   xmlns:cc="http://creativecommons.org/ns#"
   xmlns:rdf="http://www.w3.org/1999/02/22-rdf-syntax-ns#"
   xmlns:svg="http://www.w3.org/2000/svg"
   xmlns="http://www.w3.org/2000/svg"
   xmlns:sodipodi="http://sodipodi.sourceforge.net/DTD/sodipodi-0.dtd"
   xmlns:inkscape="http://www.inkscape.org/namespaces/inkscape"
   id="svg3355"
   version="1.1"
   inkscape:version="0.91 r13725"
   xml:space="preserve"
   width="468.125"
   height="367.11249"
   viewBox="0 0 468.125 367.11249"
   sodipodi:docname="manual-do-bixo-logo.svg"><metadata
     id="metadata3361"><rdf:RDF><cc:Work
         rdf:about=""><dc:format>image/svg+xml</dc:format><dc:type
           rdf:resource="http://purl.org/dc/dcmitype/StillImage" /><dc:title></dc:title></cc:Work></rdf:RDF></metadata><defs
     id="defs3359"><clipPath
       clipPathUnits="userSpaceOnUse"
       id="clipPath3375"><path
         d="m 1026.67,2534.17 73.3281,0 0,200 -73.3281,0 0,-200 z"
         id="path3377"
         inkscape:connector-curvature="0" /></clipPath><clipPath
       clipPathUnits="userSpaceOnUse"
       id="clipPath3391"><path
         d="m 2953.16,2534.17 73.3281,0 0,200 -73.3281,0 0,-200 z"
         id="path3393"
         inkscape:connector-curvature="0" /></clipPath><clipPath
       clipPathUnits="userSpaceOnUse"
       id="clipPath3405"><path
         d="m 399.461,497.891 147.273,0 0,1186.39 -147.273,0 0,-1186.39 z"
         id="path3407"
         inkscape:connector-curvature="0" /></clipPath><clipPath
       clipPathUnits="userSpaceOnUse"
       id="clipPath3433"><path
         d="m 1614.09,1961.25 127.012,0 0,195.441 -127.012,0 0,-195.441 z"
         id="path3435"
         inkscape:connector-curvature="0" /></clipPath></defs><sodipodi:namedview
     pagecolor="#ffffff"
     bordercolor="#666666"
     borderopacity="1"
     objecttolerance="10"
     gridtolerance="10"
     guidetolerance="10"
     inkscape:pageopacity="0"
     inkscape:pageshadow="2"
     inkscape:window-width="1366"
     inkscape:window-height="704"
     id="namedview3357"
     showgrid="false"
     inkscape:zoom="1.4028398"
     inkscape:cx="177.03532"
     inkscape:cy="183.55624"
     inkscape:window-x="0"
     inkscape:window-y="27"
     inkscape:window-maximized="1"
     inkscape:current-layer="g3365" /><g
     id="g3363"
     inkscape:groupmode="layer"
     inkscape:label="ink_ext_XXXXXX"
     transform="matrix(1.25,0,0,-1.25,0,367.1125)"><g
       id="g3365"
       transform="scale(0.1,0.1)"><path
         d="m 0,2294.17 200,0 0,346.67 60,-346.67 140,0 73.332,346.67 0,-346.67 200,0 0,642.74 -293.332,0 -43.332,-289.41 -50,289.41 -278.22659,0 L 0,2294.17"
         style="fill:#b3b3b3;fill-opacity:1;fill-rule:nonzero;stroke:none"
         id="path3367"
         inkscape:connector-curvature="0" /><path
         d="m 1340,2294.17 -240,0 0,100 -73.33,0 0,-100 -240.002,0 120,642.74 306.662,0 126.67,-642.74 m -240,240.01 0,-0.01 0,0.01 -33.33,200 -0.01,-0.01 -39.99,-199.99 0,-0.01 73.33,0.01"
         style="fill:#b3b3b3;fill-opacity:1;fill-rule:nonzero;stroke:none"
         id="path3369"
         inkscape:connector-curvature="0" /><g
         id="g3371"><g
           id="g3373"
           clip-path="url(#clipPath3375)"><path
             d="m 1100,2534.18 -73.33,0 0,0 40,200 0,-0.01 33.33,-199.99"
             style="fill:#ffffff;fill-opacity:1;fill-rule:nonzero;stroke:none"
             id="path3379"
             inkscape:connector-curvature="0" /></g></g><path
         d="m 1470,2294.17 170,0 0,268.33 95,-268.33 191.49,0 0,642.74 -176.49,0 -5,-239.41 -100,239.41 -175,0 0,-642.74"
         style="fill:#b3b3b3;fill-opacity:1;fill-rule:nonzero;stroke:none"
         id="path3381"
         inkscape:connector-curvature="0" /><path
         d="m 2330,2936.91 -225,0 0,-469.41 c 0,0 -10,-180 225,-195 235,-15 280,145 280,145 l 0,519.41 -225,-4.41 0,-470 c 0,0 -5.06,-90 -27.53,-70 0,0 -27.47,-35 -32.47,75 -5,110 5,469.41 5,469.41"
         style="fill:#b3b3b3;fill-opacity:1;fill-rule:nonzero;stroke:none"
         id="path3383"
         inkscape:connector-curvature="0" /><path
         d="m 3266.49,2294.17 -240,0 0,100 -73.33,0 0,-100 -240,0 120,642.74 306.67,0 126.66,-642.74 m -240,240.01 0,0 -33.33,200 0,-0.01 -40,-199.99 0,-0.01 73.33,0.01"
         style="fill:#b3b3b3;fill-opacity:1;fill-rule:nonzero;stroke:none"
         id="path3385"
         inkscape:connector-curvature="0" /><g
         id="g3387"><g
           id="g3389"
           clip-path="url(#clipPath3391)"><path
             d="m 3026.49,2534.18 -73.33,0 0,0 40,200 0,-0.01 33.33,-199.99"
             style="fill:#ffffff;fill-opacity:1;fill-rule:nonzero;stroke:none"
             id="path3395"
             inkscape:connector-curvature="0" /></g></g><path
         d="m 3395,2936.91 215,0 0,-519.41 125,0 0,-145.99 -340,0 0,665.4"
         style="fill:#b3b3b3;fill-opacity:1;fill-rule:nonzero;stroke:none"
         id="path3397"
         inkscape:connector-curvature="0" /><path
         d="M 261.992,187.5 C 90.3477,187.5 0,189.641 0,189.641 l 0,1783.999 473.02,0 c 0,0 23.585,4.13 59.679,4.13 119.567,0 376.418,-45.38 368.047,-436.91 0,0 70.832,-322.17 -207.055,-384.69 0,0 239.747,-28.85 239.747,-326.979 0,-298.14 0,-346.222 0,-346.222 0,0 21.796,-288.52 -354.168,-293.328 C 453.953,188.039 347.809,187.5 261.992,187.5 m 137.469,314.699 c 0.125,-0.039 13.676,-4.308 32.512,-4.308 41.019,-0.012 107.148,20.25 114.605,148.57 l 0,216.391 c 0,0 0.145,1.968 0.156,5.429 l 0,1.18 c -0.113,27.73 -8.722,133.289 -132.957,133.289 -4.613,0 -9.382,-0.15 -14.32,-0.45 l 0.004,-500.101 m 0,779.001 c 0.148,-0.08 18,-8.78 41.215,-8.78 43.519,0 105.902,30.58 105.902,205.93 0,175.34 -62.383,205.93 -105.902,205.93 -23.223,0 -41.067,-8.7 -41.215,-8.78 l 0,-394.3"
         style="fill:#808080;fill-opacity:1;fill-rule:nonzero;stroke:none"
         id="path3399"
         inkscape:connector-curvature="0" /><g
         id="g3401"><g
           id="g3403"
           clip-path="url(#clipPath3405)"><path
             d="m 440.676,1272.42 c -23.215,0 -41.067,8.7 -41.215,8.78 l 0,394.3 c 0.148,0.08 17.992,8.78 41.215,8.78 43.519,0 105.902,-30.59 105.902,-205.93 0,-175.35 -62.383,-205.93 -105.902,-205.93"
             style="fill:#ffffff;fill-opacity:1;fill-rule:nonzero;stroke:none"
             id="path3409"
             inkscape:connector-curvature="0" /><path
             d="m 431.973,497.891 c -18.836,0 -32.387,4.269 -32.512,4.308 l 0,500.101 c 4.934,0.3 9.703,0.45 14.316,0.45 124.235,0 132.844,-105.559 132.957,-133.289 l 0,-1.18 c -0.011,-3.461 -0.156,-5.429 -0.156,-5.429 l 0,-216.391 C 539.121,518.141 472.992,497.879 431.973,497.891"
             style="fill:#ffffff;fill-opacity:1;fill-rule:nonzero;stroke:none"
             id="path3411"
             inkscape:connector-curvature="0" /></g></g><path
         d="m 1276.71,187.5 392.309,0 0,1790.28 -392.309,0 0,-1790.28 z"
         style="fill:#808080;fill-opacity:1;fill-rule:nonzero;stroke:none"
         id="path3413"
         inkscape:connector-curvature="0" /><path
         d="m 1930.56,1977.78 386.86,0 98.08,-465.77 76.28,465.77 343.27,0 -141.66,-787.95 207.05,-1002.33 -365.07,0 -119.87,632.07 -87.18,-632.07 -397.76,0 159.52,992.72 -159.52,797.56"
         style="fill:#808080;fill-opacity:1;fill-rule:nonzero;stroke:none"
         id="path3415"
         inkscape:connector-curvature="0" /><path
         d="m 3472.69,1469.81 18.3,-210.05 -187.66,0 6.87,210.05 -180.79,-117.15 -96.12,129.26 208.25,111.09 -203.68,113.1 84.68,137.34 187.66,-121.18 -13.73,203.99 192.23,0 -16.01,-201.97 192.24,117.14 80.09,-135.32 -212.83,-111.08 212.83,-111.09 -91.53,-127.24 -180.8,113.11"
         style="fill:#808080;fill-opacity:1;fill-rule:nonzero;stroke:none"
         id="path3417"
         inkscape:connector-curvature="0" /><path
         d="m 2202.6,2180.17 c 0,-5.67 -3.42,-9.28 -10.26,-10.84 -6.83,-1.76 -20.99,-3.22 -42.48,-4.39 -10.74,-0.4 -19.82,-0.78 -27.24,-1.17 -7.42,-0.4 -13.19,-0.79 -17.29,-1.18 -8.01,-0.58 -15.04,-2.54 -21.09,-5.86 1.56,-2.53 4.34,-6.25 8.35,-11.13 4,-4.88 9.13,-11.03 15.38,-18.46 12.89,-14.64 22.75,-26.47 29.59,-35.44 6.83,-8.99 10.25,-15.53 10.25,-19.63 0,-5.47 -1.76,-10.21 -5.27,-14.21 -3.52,-4.01 -7.52,-6.01 -12.01,-6.01 -2.74,0 -5.67,1.17 -8.79,3.52 -1.56,1.36 -3.18,2.93 -4.84,4.68 -1.66,1.76 -3.46,3.81 -5.42,6.16 -1.95,2.53 -3.41,4.39 -4.39,5.56 -0.98,1.18 -1.56,1.86 -1.76,2.05 -1.56,1.76 -3.76,4.4 -6.59,7.91 -2.83,3.52 -6.4,8.01 -10.69,13.48 -8.21,10.74 -15.19,19.82 -20.95,27.25 -5.76,7.42 -11.57,13.86 -17.43,19.33 -2.15,-1.17 -5.96,-5.96 -11.43,-14.35 -1.56,-2.54 -5.37,-10.36 -11.42,-23.44 -4.3,-8.6 -8.55,-16.75 -12.75,-24.46 -4.2,-7.72 -8.54,-14.99 -13.03,-21.83 -8.4,-13.67 -14.65,-20.51 -18.75,-20.51 -0.59,0 -1.47,0.3 -2.64,0.88 -1.17,0.59 -2.35,1.22 -3.52,1.9 -1.17,0.69 -2.29,1.37 -3.37,2.06 -1.07,0.68 -1.9,1.12 -2.49,1.32 -2.73,0.97 -5.03,3.22 -6.88,6.73 -1.86,3.52 -2.78,7.04 -2.78,10.55 0,2.15 4.29,9.27 12.89,21.39 4.29,6.25 8.74,12.6 13.33,19.04 4.59,6.45 9.42,13.08 14.5,19.92 9.96,13.67 15.82,22.16 17.58,25.49 -1.37,0.19 -3.13,0.34 -5.28,0.44 -2.15,0.1 -4.59,0.15 -7.32,0.15 -5.86,0 -10.6,-0.05 -14.21,-0.15 -3.61,-0.1 -7.67,-0.25 -12.16,-0.44 -2.54,0 -6,-0.54 -10.4,-1.61 -4.39,-1.08 -10.99,-2.89 -19.77,-5.42 -4.3,-1.17 -7.87,-2.2 -10.7,-3.08 -2.83,-0.88 -5.27,-1.51 -7.32,-1.9 -2.05,-0.4 -3.81,-0.69 -5.28,-0.88 -1.46,-0.2 -2.88,-0.29 -4.24,-0.29 -1.18,0 -2.55,1.94 -4.11,5.86 -1.56,4.29 -2.34,7.32 -2.34,9.08 0,2.15 0.78,4.58 2.34,7.32 1.56,2.74 2.93,4.49 4.11,5.28 1.56,0.97 4.05,2.09 7.47,3.36 3.42,1.27 7.66,2.59 12.74,3.96 10.55,2.73 18.46,4.1 23.73,4.1 30.86,0 50.88,2.05 60.06,6.15 -1.17,2.35 -2.93,5.08 -5.27,8.21 -2.35,3.11 -5.18,6.63 -8.5,10.54 -3.32,3.91 -5.91,6.93 -7.76,9.09 -1.86,2.14 -2.88,3.41 -3.08,3.8 -14.84,19.53 -22.26,32.91 -22.26,40.14 0,2.35 1.07,4.93 3.22,7.76 2.15,2.83 4.3,4.25 6.44,4.25 11.14,0 31.55,-20.8 61.23,-62.4 4.3,4.29 10.4,10.99 18.31,20.07 7.91,9.08 17.73,20.65 29.45,34.72 0.39,0.58 1.27,1.75 2.63,3.51 1.37,1.76 3.13,4 5.28,6.74 4.29,5.46 8.3,10.06 12.01,13.77 1.95,1.94 4.78,2.93 8.5,2.93 4.68,0 8.93,-1.37 12.74,-4.1 3.81,-2.74 5.71,-6.35 5.71,-10.84 0.39,-1.76 0,-3.47 -1.17,-5.13 -1.17,-1.66 -2.68,-3.27 -4.54,-4.83 -1.86,-1.57 -3.81,-3.13 -5.86,-4.69 -2.05,-1.57 -3.76,-3.33 -5.13,-5.27 -9.37,-16.22 -16.4,-26.77 -21.09,-31.64 -1.56,-1.76 -3.42,-3.67 -5.57,-5.72 -2.14,-2.05 -4.59,-4.25 -7.32,-6.59 -2.54,-2.34 -4.79,-4.44 -6.74,-6.3 -1.95,-1.86 -3.61,-3.47 -4.98,-4.83 2.93,-1.17 6.15,-1.76 9.67,-1.76 2.54,0 7.23,0.39 14.06,1.17 6.84,0.78 15.92,1.95 27.25,3.52 1.95,0.39 4.39,0.77 7.32,1.17 2.93,0.39 6.35,0.98 10.26,1.76 8.2,1.56 15.28,2.78 21.24,3.66 5.95,0.88 11.47,1.32 16.55,1.32 3.71,0 6.83,-2.74 9.37,-8.21 2.93,-5.67 4.4,-10.35 4.4,-14.06"
         style="fill:#100f0d;fill-opacity:1;fill-rule:nonzero;stroke:none"
         id="path3419"
         inkscape:connector-curvature="0" /><path
         d="m 2202.6,2180.17 -10,0 -0.03,-0.39 0,-0.03 0.92,-0.32 -0.78,0.58 -0.14,-0.26 0.92,-0.32 -0.78,0.58 0.35,-0.26 -0.28,0.34 -0.07,-0.08 0.35,-0.26 -0.28,0.34 c -0.04,-0.05 -0.8,-0.59 -2.66,-1.01 l -0.14,-0.03 -0.13,-0.03 c -2.49,-0.66 -7.47,-1.47 -14.28,-2.16 -6.84,-0.71 -15.62,-1.36 -26.25,-1.94 l 0.54,-9.98 -0.36,9.99 c -10.78,-0.4 -19.9,-0.79 -27.41,-1.18 -7.5,-0.4 -13.35,-0.79 -17.71,-1.2 l 0.95,-9.96 -0.73,9.98 c -9.18,-0.67 -17.69,-2.96 -25.17,-7.07 l -9.22,-5.05 5.51,-8.96 c 2.04,-3.29 4.99,-7.16 9.14,-12.24 l 0,0.01 c 4.04,-4.94 9.19,-11.12 15.46,-18.56 l 0.07,-0.08 0.07,-0.08 c 12.8,-14.54 22.55,-26.24 29.14,-34.9 3.2,-4.19 5.47,-7.7 6.79,-10.22 0.65,-1.26 1.06,-2.26 1.26,-2.88 l 0.16,-0.61 0.01,-0.03 1.72,0.17 -1.73,0 0.01,-0.17 1.72,0.17 -1.73,0 c -0.07,-3.34 -0.82,-5.28 -2.78,-7.61 l -0.17,-0.19 0.16,0.18 c -1.06,-1.21 -1.94,-1.82 -2.59,-2.15 l -1.9,-0.45 -0.06,0.01 c -0.23,0.04 -1.22,0.36 -2.73,1.51 l -6,-8 6.57,7.53 c -1.27,1.11 -2.66,2.45 -4.14,4.02 -1.48,1.57 -3.16,3.47 -5,5.69 l -7.69,-6.4 7.92,6.1 c -1.99,2.58 -3.48,4.48 -4.63,5.87 l -1.26,1.49 -1.11,1.22 -7.07,-7.07 7.48,6.64 c -1.37,1.54 -3.51,4.1 -6.28,7.55 -2.8,3.46 -6.34,7.93 -10.62,13.38 l -7.86,-6.18 7.94,6.07 c -8.21,10.75 -15.21,19.85 -20.99,27.31 -6.04,7.78 -12.2,14.62 -18.51,20.51 l -5.28,4.93 -6.33,-3.46 c -1.93,-1.08 -3.05,-2.14 -4.21,-3.27 -3.28,-3.33 -6.49,-7.83 -10.81,-14.41 l -0.07,-0.1 -0.06,-0.11 c -1.21,-1.99 -2.52,-4.58 -4.51,-8.63 -1.95,-4 -4.43,-9.27 -7.48,-15.85 l 9.08,-4.2 -8.95,4.47 c -4.25,-8.5 -8.44,-16.55 -12.58,-24.15 -4.08,-7.5 -8.28,-14.53 -12.61,-21.12 l -0.08,-0.12 -0.09,-0.14 c -3.99,-6.51 -7.43,-11.24 -9.84,-13.86 -1.19,-1.31 -2.13,-2.07 -2.42,-2.25 l -0.06,-0.04 2.1,-4.02 0,4.43 c -1.35,-0.01 -2.03,-0.38 -2.1,-0.41 l 2.1,-4.02 0,4.43 0,-6.48 2.06,6.19 c -0.2,0.05 -0.7,0.27 -2.06,0.29 l 0,-6.48 2.06,6.19 -0.62,-1.87 0.7,1.84 -0.08,0.03 -0.62,-1.87 0.7,1.84 -0.31,0.14 c -0.99,0.5 -1.96,1.02 -2.92,1.59 l -0.02,0.01 -0.01,0 c -1.08,0.64 -2.09,1.24 -3.01,1.84 l -0.03,0.01 c -1.45,0.9 -2.61,1.64 -4.69,2.37 l -3.17,-9.48 3.37,9.41 -0.11,-0.28 0.17,0.26 -0.06,0.02 -0.11,-0.28 0.17,0.26 c -0.02,0 -0.64,0.44 -1.47,2.01 -1.21,2.31 -1.61,4.14 -1.62,5.88 l -6.52,0 6.25,-1.98 c 0.03,0.17 0.24,0.6 0.27,1.98 l -6.52,0 6.25,-1.98 -1.54,0.49 1.52,-0.55 0.02,0.06 -1.54,0.49 1.52,-0.55 c -0.02,0.07 1.1,2.38 3.03,5.4 1.94,3.09 4.73,7.2 8.3,12.24 l 0.04,0.06 0.05,0.06 c 4.26,6.2 8.67,12.51 13.23,18.91 4.55,6.38 9.34,12.96 14.39,19.76 l 0.04,0.06 0.01,0.01 c 5.01,6.88 9.01,12.47 12.02,16.84 3.03,4.41 4.98,7.37 6.32,9.86 l 6.66,12.62 -14.12,1.96 c -1.83,0.26 -3.83,0.41 -6.18,0.53 l -0.02,0 c -2.34,0.11 -4.93,0.16 -7.78,0.16 -5.92,0 -10.72,-0.05 -14.48,-0.16 l -0.01,0 c -3.68,-0.1 -7.77,-0.25 -12.3,-0.44 l 0.42,-9.99 0,10 c -3.93,-0.02 -7.93,-0.74 -12.76,-1.89 l -0.01,-0.01 c -4.66,-1.14 -11.32,-2.97 -20.17,-5.53 l 2.77,-9.6 -2.64,9.64 c -4.37,-1.19 -8.03,-2.24 -11.02,-3.17 -2.58,-0.8 -4.7,-1.34 -6.23,-1.63 l -0.03,0 c -1.9,-0.37 -3.48,-0.63 -4.66,-0.79 l -0.05,0 0.01,0 c -1.06,-0.14 -2.03,-0.2 -2.92,-0.2 l 0,-8.44 5.17,6.74 c -0.8,0.62 -2.61,1.69 -5.17,1.7 l 0,-8.44 5.17,6.74 -3.5,-4.57 4.53,3.57 -1.03,1 -3.5,-4.57 4.53,3.57 -1.69,-1.33 1.77,1.23 -0.08,0.1 -1.69,-1.33 1.77,1.23 -0.07,0.12 c -0.18,0.31 -0.58,1.1 -1.03,2.25 l -9.29,-3.71 9.4,3.41 c -0.71,1.94 -1.2,3.51 -1.47,4.57 l -0.26,1.15 -0.02,0.16 -2.32,-0.21 2.33,0 -0.01,0.21 -2.32,-0.21 2.33,0 -0.08,0 0.08,-0.02 0,0.02 -0.08,0 0.08,-0.02 c 0.02,0.19 0.26,1.06 1.03,2.39 l -0.01,-0.01 c 0.61,1.07 1.13,1.83 1.41,2.19 l 0.15,0.18 0.03,0.03 -2.63,2.54 2.01,-3.02 0.62,0.48 -2.63,2.54 2.01,-3.02 -5.54,8.32 5.3,-8.48 c 0.45,0.31 2.57,1.34 5.66,2.48 l -0.01,-0.01 c 3,1.12 6.99,2.36 11.86,3.67 l -0.09,-0.02 c 10.11,2.65 17.6,3.82 21.22,3.78 15.66,0 28.66,0.51 39.18,1.59 10.56,1.12 18.51,2.61 24.96,5.43 l 9.54,4.26 -4.68,9.35 c -1.57,3.13 -3.63,6.27 -6.21,9.73 l -0.01,0 c -2.5,3.33 -5.45,6.99 -8.87,11.01 l 0,0.01 c -3.33,3.92 -5.93,6.96 -7.81,9.13 l 0,0.01 c -0.89,1.03 -1.56,1.83 -1.96,2.31 l -0.33,0.42 -5.53,-4.06 6.14,3.03 c -0.54,1.02 -0.6,0.99 -0.61,1.03 l -5.53,-4.06 6.14,3.03 -0.43,0.86 -0.58,0.77 c -7.24,9.51 -12.57,17.44 -15.91,23.48 -1.67,3 -2.84,5.54 -3.51,7.41 -0.69,1.88 -0.83,3.09 -0.8,3.19 l -1.52,0 1.49,-0.32 0.03,0.32 -1.52,0 1.49,-0.32 0.2,0.48 1.01,1.56 0,-0.01 0.68,0.8 0.14,0.12 -2.34,3.15 0,-3.77 c 1.34,-0.02 2.32,0.58 2.34,0.62 l -2.34,3.15 0,-3.77 0,0.29 -0.03,-0.29 0.03,0 0,0.29 -0.03,-0.29 c 0.15,0.05 2.37,-0.59 5.5,-2.85 4.76,-3.31 11.51,-9.72 19.52,-18.99 8.04,-9.28 17.45,-21.43 28.1,-36.37 l 6.86,-9.61 8.35,8.34 c 4.61,4.61 10.79,11.41 18.79,20.58 7.98,9.16 17.83,20.78 29.58,34.88 l 0.34,0.41 0.3,0.45 c 0.02,0.05 0.91,1.26 2.21,2.92 1.34,1.73 3.1,3.97 5.25,6.71 l -0.01,-0.01 c 4.11,5.23 7.88,9.54 11.22,12.88 l -0.01,-0.01 -0.82,0.82 0.61,-0.99 0.21,0.17 -0.82,0.82 0.61,-0.99 -0.13,0.21 0.09,-0.23 0.04,0.02 -0.13,0.21 0.09,-0.23 c 0.06,0.03 0.58,0.2 1.69,0.2 2.74,-0.04 4.66,-0.66 6.91,-2.23 l -0.01,0.01 1.28,-1.31 0.27,-1.41 0,-1.1 0.24,-1.07 3.87,0.86 -3.96,0 0.09,-0.86 3.87,0.86 -3.96,0 3.29,0 -2.77,1.96 c -0.08,-0.07 -0.54,-0.97 -0.52,-1.96 l 3.29,0 -2.77,1.96 -0.01,-0.02 c -0.59,-0.83 -1.5,-1.84 -2.81,-2.94 l -0.01,-0.02 c -1.71,-1.44 -3.53,-2.89 -5.47,-4.37 l -0.01,-0.01 c -2.79,-2.12 -5.25,-4.63 -7.24,-7.47 l -0.26,-0.36 -0.21,-0.38 c -4.62,-7.98 -8.63,-14.52 -11.97,-19.53 -3.32,-5 -6.07,-8.53 -7.68,-10.19 l -0.13,-0.14 -0.13,-0.14 c -1.34,-1.5 -3.01,-3.22 -5,-5.13 -1.99,-1.9 -4.31,-3.98 -6.93,-6.23 l -0.14,-0.12 -0.13,-0.12 c -2.57,-2.37 -4.85,-4.5 -6.85,-6.4 l -0.01,-0.01 c -1.99,-1.9 -3.7,-3.55 -5.14,-4.99 l -10.76,-10.72 14.11,-5.65 c 4.21,-1.69 8.76,-2.47 13.38,-2.47 3.45,0.01 8.17,0.44 15.2,1.23 6.96,0.8 16.1,1.98 27.48,3.55 l 0.29,0.04 0.3,0.06 c 1.62,0.33 3.9,0.69 6.7,1.07 l -0.02,0 c 3.22,0.42 6.83,1.05 10.9,1.86 l -0.09,-0.02 c 8.1,1.55 15.06,2.75 20.82,3.6 5.56,0.81 10.6,1.21 15.1,1.21 l 0,2.81 -1.05,-2.61 1.05,-0.2 0,2.81 -1.05,-2.61 0.67,1.66 -1.08,-1.44 0.41,-0.22 0.67,1.66 -1.08,-1.44 0.09,-0.09 c 0.26,-0.25 0.94,-1.15 1.67,-2.75 l 0.09,-0.19 0.1,-0.19 c 2.57,-4.86 3.35,-8.4 3.28,-9.47 l 20,0 c -0.07,6.35 -2.22,12.18 -5.51,18.65 l -8.89,-4.59 9.07,4.22 c -1.67,3.55 -3.69,6.77 -6.73,9.46 -2.96,2.68 -7.35,4.59 -11.71,4.53 -5.66,-0.01 -11.65,-0.49 -18.01,-1.43 -6.15,-0.91 -13.35,-2.15 -21.66,-3.73 l -0.03,-0.01 -0.06,-0.01 c -3.74,-0.75 -6.97,-1.3 -9.61,-1.65 l -0.02,0 c -3.05,-0.41 -5.66,-0.82 -7.94,-1.28 l 1.96,-9.8 -1.37,9.9 c -11.28,-1.56 -20.3,-2.72 -27.01,-3.48 -6.65,-0.77 -11.31,-1.13 -12.93,-1.11 -2.41,0 -4.31,0.39 -5.96,1.04 l -3.71,-9.28 7.06,-7.09 c 1.29,1.29 2.9,2.86 4.82,4.68 l 0.08,0.08 -0.09,-0.09 c 1.91,1.81 4.12,3.88 6.63,6.2 l -6.78,7.35 6.51,-7.59 c 2.84,2.44 5.41,4.75 7.72,6.95 2.3,2.2 4.34,4.29 6.13,6.3 l -7.47,6.65 7.21,-6.93 c 3.07,3.21 6.19,7.4 9.9,12.94 3.69,5.54 7.88,12.38 12.64,20.62 l -8.66,5.01 8.19,-5.75 c 0.74,1.05 1.7,2.07 3.01,3.07 l 0.08,0.06 -0.09,-0.07 c 2.17,1.65 4.25,3.31 6.25,5.01 l -0.01,-0.01 c 2.4,2.01 4.51,4.23 6.27,6.71 l -0.01,-0.01 c 1.84,2.55 3.18,6 3.16,9.6 0,1.18 -0.14,2.35 -0.39,3.48 l -9.76,-2.17 10,0 c 0.02,3.65 -0.81,7.42 -2.58,10.74 -1.75,3.33 -4.34,6.11 -7.29,8.21 l -0.01,0.01 c -5.36,3.9 -11.94,6.02 -18.57,5.98 -2.74,0 -5.48,-0.36 -8.17,-1.28 -2.69,-0.92 -5.3,-2.47 -7.39,-4.57 l -0.01,-0.01 c -4.09,-4.09 -8.32,-8.97 -12.8,-14.66 l -0.01,-0.01 c -2.15,-2.74 -3.91,-4.99 -5.3,-6.77 -1.44,-1.86 -2.3,-2.99 -3.06,-4.11 l 8.32,-5.54 -7.68,6.39 c -11.69,-14.02 -21.47,-25.55 -29.31,-34.55 -7.82,-8.98 -13.85,-15.58 -17.83,-19.55 l 7.06,-7.08 8.14,5.81 c -15.03,21.05 -27.75,36.96 -38.57,48 -5.43,5.52 -10.37,9.84 -15.2,13.04 -4.84,3.12 -9.65,5.46 -15.6,5.55 -3.32,0.02 -6.41,-1.16 -8.73,-2.72 -2.34,-1.56 -4.11,-3.43 -5.67,-5.48 l -0.01,0 c -2.89,-3.84 -5.21,-8.31 -5.25,-13.81 0.02,-3.52 0.81,-6.68 1.98,-9.96 3.56,-9.69 10.92,-21.15 22.32,-36.23 l 7.96,6.05 -8.97,-4.42 c 0.63,-1.22 0.9,-1.5 1.21,-1.95 0.85,-1.15 1.8,-2.26 3.27,-3.97 l -0.01,0.01 c 1.84,-2.13 4.41,-5.14 7.72,-9.03 l 0,0 c 3.22,-3.8 5.93,-7.17 8.12,-10.08 l 0.06,-0.08 -0.06,0.09 c 2.1,-2.8 3.55,-5.12 4.33,-6.68 l 8.94,4.47 -4.08,9.13 c -2.72,-1.27 -9.38,-2.86 -18.84,-3.79 -9.5,-0.98 -21.93,-1.49 -37.14,-1.49 -6.93,-0.04 -15.25,-1.6 -26.24,-4.42 l -0.05,-0.01 -0.04,-0.01 c -5.29,-1.43 -9.79,-2.82 -13.62,-4.24 l -0.02,-0.01 c -3.74,-1.41 -6.6,-2.61 -9.27,-4.26 l -0.13,-0.07 -0.12,-0.08 c -1.95,-1.33 -3.14,-2.69 -4.25,-4.08 -1.09,-1.41 -2.04,-2.9 -2.99,-4.56 l -0.01,0 c -2.08,-3.69 -3.62,-7.67 -3.65,-12.28 0.02,-2.33 0.4,-4.1 0.9,-6.09 0.51,-1.97 1.19,-4.06 2.04,-6.42 l 0.06,-0.14 0.05,-0.14 c 0.97,-2.38 1.88,-4.37 3.3,-6.43 0.74,-1.04 1.61,-2.14 3.09,-3.29 1.44,-1.12 3.86,-2.43 7.01,-2.43 1.84,0 3.7,0.13 5.57,0.38 l -0.04,-0.01 c 1.75,0.23 3.69,0.56 5.88,0.98 l -0.02,-0.01 c 2.57,0.5 5.33,1.22 8.42,2.18 2.66,0.83 6.14,1.83 10.36,2.98 l 0.07,0.02 0.07,0.02 c 8.72,2.52 15.25,4.3 19.38,5.31 l -0.01,0 c 3.95,0.98 6.88,1.35 8.03,1.33 l 0.22,0 0.2,0.01 c 4.46,0.19 8.47,0.33 12.02,0.43 l -0.01,0 c 3.47,0.1 8.14,0.15 13.94,0.15 2.61,0 4.91,-0.05 6.87,-0.14 l -0.02,0 c 1.95,-0.09 3.46,-0.23 4.37,-0.36 l 1.38,9.91 -8.84,4.67 c -0.42,-0.83 -2.28,-3.78 -5.11,-7.86 -2.85,-4.13 -6.76,-9.62 -11.71,-16.41 l 0.05,0.07 c -5.11,-6.89 -9.99,-13.57 -14.62,-20.08 -4.62,-6.49 -9.1,-12.88 -13.42,-19.18 l 8.24,-5.66 -8.16,5.78 c -4.38,-6.18 -7.7,-11.12 -10.08,-15.05 -1.19,-1.98 -2.14,-3.69 -2.92,-5.37 -0.39,-0.85 -0.75,-1.69 -1.07,-2.69 -0.3,-1.02 -0.64,-2.14 -0.66,-4.06 -0.01,-5.29 1.43,-10.5 3.93,-15.21 2.55,-4.9 6.6,-9.44 12.37,-11.49 l 0.1,-0.04 0.1,-0.03 1.51,4.51 -1.95,-4.34 0.44,-0.17 1.51,4.51 -1.95,-4.34 0.34,0.76 -0.38,-0.75 0.04,-0.01 0.34,0.76 -0.38,-0.75 0.76,-0.45 -0.02,0.02 c 1.22,-0.79 2.47,-1.54 3.72,-2.27 l -0.02,0.01 c 1.38,-0.81 2.76,-1.55 4.11,-2.22 0.88,-0.44 1.78,-0.85 2.84,-1.21 1.09,-0.34 2.31,-0.71 4.27,-0.73 3.86,0.05 6.71,1.46 8.98,2.94 3.42,2.3 6.11,5.19 9.05,8.85 2.91,3.67 5.94,8.12 9.24,13.49 l -8.52,5.23 8.35,-5.49 c 4.66,7.08 9.14,14.59 13.47,22.54 4.25,7.82 8.56,16.07 12.9,24.77 l 0.07,0.13 0.06,0.14 c 3.01,6.5 5.46,11.68 7.31,15.49 1.83,3.76 3.2,6.35 3.56,6.91 l -8.52,5.24 8.38,-5.46 c 2.63,4.03 4.82,7.12 6.41,9.11 0.78,1 1.43,1.71 1.79,2.07 l 0.26,0.25 -2.57,3.18 1.95,-3.58 0.62,0.4 -2.57,3.18 1.95,-3.58 -4.79,8.78 -6.83,-7.31 c 5.41,-5.04 10.88,-11.09 16.36,-18.16 5.74,-7.39 12.71,-16.46 20.9,-27.18 l 0.04,-0.06 0.04,-0.05 c 4.32,-5.49 7.9,-10.01 10.77,-13.57 2.89,-3.58 5.15,-6.3 6.91,-8.28 l 0.19,-0.22 0.21,-0.21 4.72,4.73 -4.9,-4.53 0.18,-0.2 4.72,4.73 -4.9,-4.53 0.25,0.23 -0.26,-0.23 0.01,0 0.25,0.23 -0.26,-0.23 1.34,-1.58 c 0.8,-0.96 2.24,-2.78 4.15,-5.27 l 0.12,-0.15 0.12,-0.15 c 2.06,-2.46 4,-4.67 5.83,-6.61 1.84,-1.95 3.68,-3.74 5.54,-5.36 l 0.27,-0.24 0.3,-0.22 c 4.19,-3.14 9.11,-5.49 14.79,-5.52 3.73,-0.01 7.51,0.88 10.84,2.56 3.35,1.67 6.24,4.06 8.68,6.85 l 0,-0.01 c 5.07,5.67 7.83,13.21 7.76,20.82 -0.08,4.82 -1.64,8.55 -3.7,12.61 -2.1,4.02 -4.95,8.28 -8.59,13.07 -7.08,9.3 -17.06,21.24 -30.04,36 l -7.51,-6.61 7.65,6.45 c -6.23,7.39 -11.34,13.52 -15.3,18.35 l 0,0.01 c -3.86,4.68 -6.48,8.24 -7.57,10.02 l -8.51,-5.24 4.81,-8.77 c 4.63,2.54 10.18,4.15 17.01,4.66 l 0.11,0.01 0.11,0.01 c 3.85,0.36 9.52,0.75 16.87,1.14 7.33,0.38 16.37,0.77 27.08,1.16 l 0.09,0.01 0.09,0 c 10.85,0.59 19.89,1.26 27.22,2.01 7.34,0.78 12.86,1.58 17.2,2.68 l -2.49,9.69 2.23,-9.75 c 4.65,1.07 9.17,3.02 12.73,6.76 3.6,3.7 5.38,9.04 5.3,13.83 l -10,0"
         style="fill:#100f0d;fill-opacity:1;fill-rule:nonzero;stroke:none"
         id="path3421"
         inkscape:connector-curvature="0" /><path
         d="m 1912.35,1873.98 c -29.1,0 -62.35,11.02 -62.35,11.02 l -30,30 -32.5,67.5 -10,45 -17.5,0 -12.5,-47.5 c 0,0 -35,-37.5 -75,-47.5 -1.16,-0.29 -2.32,-0.54 -3.48,-0.77 l 0,35.54 c 15.54,15.5 54.32,61.38 65.98,142.74 0,0 6.04,20.47 6.1,34.18 l 0,0.37 c -0.03,6.71 -1.54,11.7 -5.99,11.7 -0.04,0 -0.07,0 -0.11,0 0,0 -1.84,0.4 -5.15,0.44 l -0.94,0 c -15.72,-0.17 -59.2,-8.82 -98.91,-91.7 -22.77,-47.51 -17.76,-73.27 -5.69,-87.22 l -54.1,0 c -7.42,13.9 -13.83,32.06 -12.71,52.22 2.5,45 82.5,125 82.5,125 5,22.5 110,37.5 110,37.5 l -1.56,101.67 71.56,0 0,-21.67 3.75,-88.75 c 32.41,-28.93 23.02,-30 21.45,-30 -0.12,0 -0.2,0 -0.2,0 l -19.16,0 c 0.4,-4.33 0.53,-19.19 -0.84,-63.75 -2.5,-81.25 46.25,-168.75 46.25,-168.75 C 1865,1910 1932.5,1900 1932.5,1900 c 0,0 25,-20 -6.12,-25 -4.45,-0.71 -9.18,-1.02 -14.03,-1.02"
         style="fill:#100f0d;fill-opacity:1;fill-rule:nonzero;stroke:none"
         id="path3423"
         inkscape:connector-curvature="0" /><path
         d="m 1820,2294.17 -71.56,0 -0.94,60.83 c 0,0 -30,5 17.5,17.5 4.66,1.23 8.93,1.79 12.85,1.79 36.04,0 42.15,-46.79 42.15,-46.79 l 0,-33.33"
         style="fill:#100f0d;fill-opacity:1;fill-rule:nonzero;stroke:none"
         id="path3425"
         inkscape:connector-curvature="0" /><path
         d="m 1654.02,1930.31 c -33.59,0 -64.02,19.69 -64.02,19.69 0,0 -10.66,10.66 -19.79,27.78 l 54.1,0 c 14.21,-16.43 38.19,-16.52 38.19,-16.52 0,0 2.47,1.97 6.52,6.01 l 0,-35.54 c -5.01,-0.99 -10.03,-1.42 -15,-1.42"
         style="fill:#100f0d;fill-opacity:1;fill-rule:nonzero;stroke:none"
         id="path3427"
         inkscape:connector-curvature="0" /><g
         id="g3429"><g
           id="g3431"
           clip-path="url(#clipPath3433)"><path
             d="m 1669.02,1967.27 0,10.51 -44.71,0 c -12.07,13.95 -17.08,39.71 5.69,87.22 39.71,82.88 83.19,91.53 98.91,91.7 l 0.94,0 c 3.31,-0.04 5.15,-0.44 5.15,-0.44 0.04,0 0.07,0 0.11,0 4.45,0 5.96,-4.99 5.99,-11.7 l 0,-0.37 c -0.06,-13.71 -6.1,-34.18 -6.1,-34.18 -11.66,-81.36 -50.44,-127.24 -65.98,-142.74"
             style="fill:#ffffff;fill-opacity:1;fill-rule:nonzero;stroke:none"
             id="path3437"
             inkscape:connector-curvature="0" /><path
             d="m 1662.5,1961.26 c 0,0 -23.98,0.09 -38.19,16.52 l 44.71,0 0,-10.51 c -4.05,-4.04 -6.52,-6.01 -6.52,-6.01"
             style="fill:#56af35;fill-opacity:1;fill-rule:nonzero;stroke:none"
             id="path3439"
             inkscape:connector-curvature="0" /></g></g></g></g></svg>